<svg id="Layer_1" data-name="Layer 1" xmlns="http://www.w3.org/2000/svg" xmlns:xlink="http://www.w3.org/1999/xlink" viewBox="0 0 753.51 768.3"><defs><style>.cls-1,.cls-126,.cls-13,.cls-135,.cls-143,.cls-147,.cls-149,.cls-150,.cls-153,.cls-154,.cls-161,.cls-165,.cls-166,.cls-170,.cls-171,.cls-172,.cls-174,.cls-183,.cls-195,.cls-197,.cls-2,.cls-3,.cls-5,.cls-9{fill:#4e598c;}.cls-1,.cls-10,.cls-100,.cls-101,.cls-102,.cls-103,.cls-104,.cls-105,.cls-106,.cls-107,.cls-108,.cls-109,.cls-11,.cls-110,.cls-111,.cls-112,.cls-113,.cls-114,.cls-115,.cls-116,.cls-117,.cls-118,.cls-119,.cls-12,.cls-120,.cls-121,.cls-122,.cls-123,.cls-124,.cls-125,.cls-126,.cls-127,.cls-128,.cls-129,.cls-13,.cls-130,.cls-131,.cls-132,.cls-133,.cls-134,.cls-135,.cls-136,.cls-137,.cls-138,.cls-139,.cls-14,.cls-140,.cls-141,.cls-142,.cls-143,.cls-144,.cls-145,.cls-146,.cls-147,.cls-148,.cls-149,.cls-15,.cls-150,.cls-151,.cls-152,.cls-153,.cls-154,.cls-155,.cls-156,.cls-157,.cls-158,.cls-159,.cls-16,.cls-160,.cls-161,.cls-162,.cls-163,.cls-164,.cls-165,.cls-166,.cls-167,.cls-168,.cls-169,.cls-17,.cls-170,.cls-171,.cls-172,.cls-173,.cls-174,.cls-175,.cls-176,.cls-177,.cls-178,.cls-179,.cls-18,.cls-180,.cls-181,.cls-182,.cls-183,.cls-184,.cls-185,.cls-186,.cls-187,.cls-188,.cls-189,.cls-19,.cls-190,.cls-191,.cls-192,.cls-193,.cls-194,.cls-195,.cls-196,.cls-197,.cls-198,.cls-199,.cls-2,.cls-20,.cls-200,.cls-201,.cls-202,.cls-21,.cls-22,.cls-23,.cls-24,.cls-25,.cls-26,.cls-27,.cls-28,.cls-29,.cls-3,.cls-30,.cls-31,.cls-32,.cls-33,.cls-34,.cls-35,.cls-36,.cls-37,.cls-38,.cls-39,.cls-4,.cls-40,.cls-41,.cls-42,.cls-43,.cls-44,.cls-45,.cls-46,.cls-47,.cls-48,.cls-49,.cls-5,.cls-50,.cls-51,.cls-52,.cls-53,.cls-54,.cls-55,.cls-56,.cls-57,.cls-58,.cls-59,.cls-6,.cls-60,.cls-61,.cls-62,.cls-63,.cls-64,.cls-65,.cls-66,.cls-67,.cls-68,.cls-69,.cls-7,.cls-70,.cls-71,.cls-72,.cls-73,.cls-74,.cls-75,.cls-76,.cls-77,.cls-78,.cls-79,.cls-8,.cls-80,.cls-81,.cls-82,.cls-83,.cls-84,.cls-85,.cls-86,.cls-87,.cls-88,.cls-89,.cls-9,.cls-90,.cls-91,.cls-92,.cls-93,.cls-94,.cls-95,.cls-96,.cls-97,.cls-98,.cls-99{stroke-miterlimit:10;}.cls-1{stroke:url(#Dégradé_sans_nom);}.cls-2{stroke:url(#Dégradé_sans_nom-2);}.cls-3{stroke:url(#Dégradé_sans_nom-3);}.cls-118,.cls-120,.cls-121,.cls-123,.cls-159,.cls-160,.cls-179,.cls-181,.cls-189,.cls-198,.cls-4,.cls-7{fill:#ffb750;}.cls-4{stroke:url(#Dégradé_sans_nom-4);}.cls-5{stroke:url(#Dégradé_sans_nom-5);}.cls-10,.cls-11,.cls-128,.cls-137,.cls-190,.cls-192,.cls-193,.cls-194,.cls-199,.cls-200,.cls-201,.cls-202,.cls-6,.cls-8{fill:#fff;}.cls-6{stroke:url(#Dégradé_sans_nom-6);}.cls-7{stroke:url(#Dégradé_sans_nom-7);}.cls-127,.cls-8{stroke-width:0;}.cls-8{stroke:url(#Dégradé_sans_nom-8);}.cls-9{stroke:url(#Dégradé_sans_nom-9);}.cls-10{stroke:url(#Dégradé_sans_nom-10);}.cls-11{stroke:url(#Dégradé_sans_nom-11);}.cls-100,.cls-101,.cls-102,.cls-103,.cls-104,.cls-105,.cls-106,.cls-107,.cls-108,.cls-109,.cls-110,.cls-111,.cls-112,.cls-113,.cls-114,.cls-115,.cls-116,.cls-117,.cls-12,.cls-184,.cls-185,.cls-187,.cls-64,.cls-65,.cls-66,.cls-67,.cls-68,.cls-69,.cls-70,.cls-71,.cls-72,.cls-73,.cls-74,.cls-75,.cls-76,.cls-77,.cls-78,.cls-79,.cls-80,.cls-81,.cls-82,.cls-83,.cls-84,.cls-85,.cls-86,.cls-87,.cls-88,.cls-89,.cls-90,.cls-91,.cls-92,.cls-93,.cls-94,.cls-95,.cls-96,.cls-97,.cls-98,.cls-99{fill:#f7f7f7;}.cls-12{stroke:url(#Dégradé_sans_nom-12);}.cls-13,.cls-15,.cls-16,.cls-17,.cls-18,.cls-19,.cls-20,.cls-21,.cls-22,.cls-23,.cls-24,.cls-25,.cls-26,.cls-27,.cls-28,.cls-29,.cls-30,.cls-31,.cls-32,.cls-33,.cls-34,.cls-35,.cls-36,.cls-37,.cls-38,.cls-39,.cls-40,.cls-41,.cls-42,.cls-43,.cls-44,.cls-45,.cls-46,.cls-47,.cls-48,.cls-49,.cls-50,.cls-51,.cls-52,.cls-53,.cls-54,.cls-55,.cls-56,.cls-57,.cls-58,.cls-59,.cls-60,.cls-61{stroke-width:0.5px;}.cls-13{stroke:url(#Dégradé_sans_nom-13);}.cls-136,.cls-14{fill:#f2f2f2;}.cls-14{stroke:url(#Dégradé_sans_nom-14);}.cls-15,.cls-16,.cls-17,.cls-18,.cls-19,.cls-20,.cls-21,.cls-22,.cls-23,.cls-24,.cls-25,.cls-26,.cls-27,.cls-28,.cls-29,.cls-30,.cls-31,.cls-32,.cls-33,.cls-34,.cls-35,.cls-36,.cls-37,.cls-38,.cls-39,.cls-40,.cls-41,.cls-42,.cls-43,.cls-44,.cls-45,.cls-46,.cls-47,.cls-48,.cls-49,.cls-50,.cls-51,.cls-52,.cls-53,.cls-54,.cls-55,.cls-56,.cls-57,.cls-58,.cls-59,.cls-60,.cls-61{fill:#0b4870;}.cls-15{stroke:url(#Dégradé_sans_nom-15);}.cls-16{stroke:url(#Dégradé_sans_nom-16);}.cls-17{stroke:url(#Dégradé_sans_nom-17);}.cls-18{stroke:url(#Dégradé_sans_nom-18);}.cls-19{stroke:url(#Dégradé_sans_nom-19);}.cls-20{stroke:url(#Dégradé_sans_nom-20);}.cls-21{stroke:url(#Dégradé_sans_nom-21);}.cls-22{stroke:url(#Dégradé_sans_nom-22);}.cls-23{stroke:url(#Dégradé_sans_nom-23);}.cls-24{stroke:url(#Dégradé_sans_nom-24);}.cls-25{stroke:url(#Dégradé_sans_nom-25);}.cls-26{stroke:url(#Dégradé_sans_nom-26);}.cls-27{stroke:url(#Dégradé_sans_nom-27);}.cls-28{stroke:url(#Dégradé_sans_nom-28);}.cls-29{stroke:url(#Dégradé_sans_nom-29);}.cls-30{stroke:url(#Dégradé_sans_nom-30);}.cls-31{stroke:url(#Dégradé_sans_nom-31);}.cls-32{stroke:url(#Dégradé_sans_nom-32);}.cls-33{stroke:url(#Dégradé_sans_nom-33);}.cls-34{stroke:url(#Dégradé_sans_nom-34);}.cls-35{stroke:url(#Dégradé_sans_nom-35);}.cls-36{stroke:url(#Dégradé_sans_nom-36);}.cls-37{stroke:url(#Dégradé_sans_nom-37);}.cls-38{stroke:url(#Dégradé_sans_nom-38);}.cls-39{stroke:url(#Dégradé_sans_nom-39);}.cls-40{stroke:url(#Dégradé_sans_nom-40);}.cls-41{stroke:url(#Dégradé_sans_nom-41);}.cls-42{stroke:url(#Dégradé_sans_nom-42);}.cls-43{stroke:url(#Dégradé_sans_nom-43);}.cls-44{stroke:url(#Dégradé_sans_nom-44);}.cls-45{stroke:url(#Dégradé_sans_nom-45);}.cls-46{stroke:url(#Dégradé_sans_nom-46);}.cls-47{stroke:url(#Dégradé_sans_nom-47);}.cls-48{stroke:url(#Dégradé_sans_nom-48);}.cls-49{stroke:url(#Dégradé_sans_nom-49);}.cls-50{stroke:url(#Dégradé_sans_nom-50);}.cls-51{stroke:url(#Dégradé_sans_nom-51);}.cls-52{stroke:url(#Dégradé_sans_nom-52);}.cls-53{stroke:url(#Dégradé_sans_nom-53);}.cls-54{stroke:url(#Dégradé_sans_nom-54);}.cls-55{stroke:url(#Dégradé_sans_nom-55);}.cls-56{stroke:url(#Dégradé_sans_nom-56);}.cls-57{stroke:url(#Dégradé_sans_nom-57);}.cls-58{stroke:url(#Dégradé_sans_nom-58);}.cls-59{stroke:url(#Dégradé_sans_nom-59);}.cls-60{stroke:url(#Dégradé_sans_nom-60);}.cls-61{stroke:url(#Dégradé_sans_nom-61);}.cls-138,.cls-141,.cls-167,.cls-168,.cls-169,.cls-186,.cls-62,.cls-63{fill:#d3d3d3;}.cls-62{stroke:url(#Dégradé_sans_nom-62);}.cls-63{stroke:url(#Dégradé_sans_nom-63);}.cls-64{stroke:url(#Dégradé_sans_nom-64);}.cls-65{stroke:url(#Dégradé_sans_nom-65);}.cls-66{stroke:url(#Dégradé_sans_nom-66);}.cls-67{stroke:url(#Dégradé_sans_nom-67);}.cls-68{stroke:url(#Dégradé_sans_nom-68);}.cls-69{stroke:url(#Dégradé_sans_nom-69);}.cls-70{stroke:url(#Dégradé_sans_nom-70);}.cls-71{stroke:url(#Dégradé_sans_nom-71);}.cls-72{stroke:url(#Dégradé_sans_nom-72);}.cls-73{stroke:url(#Dégradé_sans_nom-73);}.cls-74{stroke:url(#Dégradé_sans_nom-74);}.cls-75{stroke:url(#Dégradé_sans_nom-75);}.cls-76{stroke:url(#Dégradé_sans_nom-76);}.cls-77{stroke:url(#Dégradé_sans_nom-77);}.cls-78{stroke:url(#Dégradé_sans_nom-78);}.cls-79{stroke:url(#Dégradé_sans_nom-79);}.cls-80{stroke:url(#Dégradé_sans_nom-80);}.cls-81{stroke:url(#Dégradé_sans_nom-81);}.cls-82{stroke:url(#Dégradé_sans_nom-82);}.cls-83{stroke:url(#Dégradé_sans_nom-83);}.cls-84{stroke:url(#Dégradé_sans_nom-84);}.cls-85{stroke:url(#Dégradé_sans_nom-85);}.cls-86{stroke:url(#Dégradé_sans_nom-86);}.cls-87{stroke:url(#Dégradé_sans_nom-87);}.cls-88{stroke:url(#Dégradé_sans_nom-88);}.cls-89{stroke:url(#Dégradé_sans_nom-89);}.cls-90{stroke:url(#Dégradé_sans_nom-90);}.cls-91{stroke:url(#Dégradé_sans_nom-91);}.cls-92{stroke:url(#Dégradé_sans_nom-92);}.cls-93{stroke:url(#Dégradé_sans_nom-93);}.cls-94{stroke:url(#Dégradé_sans_nom-94);}.cls-95{stroke:url(#Dégradé_sans_nom-95);}.cls-96{stroke:url(#Dégradé_sans_nom-96);}.cls-97{stroke:url(#Dégradé_sans_nom-97);}.cls-98{stroke:url(#Dégradé_sans_nom-98);}.cls-99{stroke:url(#Dégradé_sans_nom-99);}.cls-100{stroke:url(#Dégradé_sans_nom-100);}.cls-101{stroke:url(#Dégradé_sans_nom-101);}.cls-102{stroke:url(#Dégradé_sans_nom-102);}.cls-103{stroke:url(#Dégradé_sans_nom-103);}.cls-104{stroke:url(#Dégradé_sans_nom-104);}.cls-105{stroke:url(#Dégradé_sans_nom-105);}.cls-106{stroke:url(#Dégradé_sans_nom-106);}.cls-107{stroke:url(#Dégradé_sans_nom-107);}.cls-108{stroke:url(#Dégradé_sans_nom-108);}.cls-109{stroke:url(#Dégradé_sans_nom-109);}.cls-110{stroke:url(#Dégradé_sans_nom-110);}.cls-111{stroke:url(#Dégradé_sans_nom-111);}.cls-112{stroke:url(#Dégradé_sans_nom-112);}.cls-113{stroke:url(#Dégradé_sans_nom-113);}.cls-114{stroke:url(#Dégradé_sans_nom-114);}.cls-115{stroke:url(#Dégradé_sans_nom-115);}.cls-116{stroke:url(#Dégradé_sans_nom-116);}.cls-117{stroke:url(#Dégradé_sans_nom-117);}.cls-118{stroke:url(#Dégradé_sans_nom-118);}.cls-119,.cls-122,.cls-124,.cls-125,.cls-129,.cls-130,.cls-131,.cls-133,.cls-134,.cls-151,.cls-162,.cls-163,.cls-164{fill:#ffe3ca;}.cls-119{stroke:url(#Dégradé_sans_nom-119);}.cls-120{stroke:url(#Dégradé_sans_nom-120);}.cls-121{stroke:url(#Dégradé_sans_nom-121);}.cls-122{stroke:url(#Dégradé_sans_nom-122);}.cls-123{stroke:url(#Dégradé_sans_nom-123);}.cls-124{stroke:url(#Dégradé_sans_nom-124);}.cls-125{stroke:url(#Dégradé_sans_nom-125);}.cls-126{stroke:url(#Dégradé_sans_nom-126);}.cls-127{fill:#eb4747;stroke:url(#Dégradé_sans_nom-127);}.cls-128{stroke:url(#Dégradé_sans_nom-128);}.cls-129{stroke:url(#Dégradé_sans_nom-129);}.cls-130{stroke:url(#Dégradé_sans_nom-130);}.cls-131{stroke:url(#Dégradé_sans_nom-131);}.cls-132,.cls-173,.cls-176,.cls-178,.cls-180,.cls-182,.cls-188,.cls-196{fill:#fcd2b1;}.cls-132{stroke:url(#Dégradé_sans_nom-132);}.cls-133{stroke:url(#Dégradé_sans_nom-133);}.cls-134{stroke:url(#Dégradé_sans_nom-134);}.cls-135{stroke:url(#Dégradé_sans_nom-135);}.cls-136{stroke:url(#Dégradé_sans_nom-136);}.cls-137{stroke:url(#Dégradé_sans_nom-137);}.cls-138{stroke:url(#Dégradé_sans_nom-138);}.cls-139,.cls-140{fill:#ffbe55;}.cls-139{stroke:url(#Dégradé_sans_nom-139);}.cls-140{stroke:url(#Dégradé_sans_nom-140);}.cls-141{stroke:url(#Dégradé_sans_nom-141);}.cls-142,.cls-152{fill:#f2f0f0;}.cls-142{stroke:url(#Dégradé_sans_nom-142);}.cls-143{stroke:url(#Dégradé_sans_nom-143);}.cls-144,.cls-145,.cls-146,.cls-148,.cls-156,.cls-158,.cls-175{fill:#0e538c;}.cls-144{stroke:url(#Dégradé_sans_nom-144);}.cls-145{stroke:url(#Dégradé_sans_nom-145);}.cls-146{stroke:url(#Dégradé_sans_nom-146);}.cls-147{stroke:url(#Dégradé_sans_nom-147);}.cls-148{stroke:url(#Dégradé_sans_nom-148);}.cls-149{stroke:url(#Dégradé_sans_nom-149);}.cls-150{stroke:url(#Dégradé_sans_nom-150);}.cls-151{stroke:url(#Dégradé_sans_nom-151);}.cls-152{stroke:url(#Dégradé_sans_nom-152);}.cls-153{stroke:url(#Dégradé_sans_nom-153);}.cls-154{stroke:url(#Dégradé_sans_nom-154);}.cls-155,.cls-157{fill:#fcbaa2;}.cls-155{stroke:url(#Dégradé_sans_nom-155);}.cls-156{stroke:url(#Dégradé_sans_nom-156);}.cls-157{stroke:url(#Dégradé_sans_nom-157);}.cls-158{stroke:url(#Dégradé_sans_nom-158);}.cls-159{stroke:url(#Dégradé_sans_nom-159);}.cls-160{stroke:url(#Dégradé_sans_nom-160);}.cls-161{stroke:url(#Dégradé_sans_nom-161);}.cls-162{stroke:url(#Dégradé_sans_nom-162);}.cls-163{stroke:url(#Dégradé_sans_nom-163);}.cls-164{stroke:url(#Dégradé_sans_nom-164);}.cls-165{stroke:url(#Dégradé_sans_nom-165);}.cls-166{stroke:url(#Dégradé_sans_nom-166);}.cls-167{stroke:url(#Dégradé_sans_nom-167);}.cls-168{stroke:url(#Dégradé_sans_nom-168);}.cls-169{stroke:url(#Dégradé_sans_nom-169);}.cls-170{stroke:url(#Dégradé_sans_nom-170);}.cls-171{stroke:url(#Dégradé_sans_nom-171);}.cls-172{stroke:url(#Dégradé_sans_nom-172);}.cls-173{stroke:url(#Dégradé_sans_nom-173);}.cls-174{stroke:url(#Dégradé_sans_nom-174);}.cls-175{stroke:url(#Dégradé_sans_nom-175);}.cls-176{stroke:url(#Dégradé_sans_nom-176);}.cls-177{fill:#ff957e;stroke:url(#Dégradé_sans_nom-177);}.cls-178{stroke:url(#Dégradé_sans_nom-178);}.cls-179{stroke:url(#Dégradé_sans_nom-179);}.cls-180{stroke:url(#Dégradé_sans_nom-180);}.cls-181{stroke:url(#Dégradé_sans_nom-181);}.cls-182{stroke:url(#Dégradé_sans_nom-182);}.cls-183{stroke:url(#Dégradé_sans_nom-183);}.cls-184{stroke:url(#Dégradé_sans_nom-184);}.cls-185{stroke:url(#Dégradé_sans_nom-185);}.cls-186{stroke:url(#Dégradé_sans_nom-186);}.cls-187{stroke:url(#Dégradé_sans_nom-187);}.cls-188{stroke:url(#Dégradé_sans_nom-188);}.cls-189{stroke:url(#Dégradé_sans_nom-189);}.cls-190{stroke:url(#Dégradé_sans_nom-190);}.cls-191{fill:#e9d6b8;stroke:url(#Dégradé_sans_nom-191);}.cls-192{stroke:url(#Dégradé_sans_nom-192);}.cls-193{stroke:url(#Dégradé_sans_nom-193);}.cls-194{stroke:url(#Dégradé_sans_nom-194);}.cls-195{stroke:url(#Dégradé_sans_nom-195);}.cls-196{stroke:url(#Dégradé_sans_nom-196);}.cls-197{stroke:url(#Dégradé_sans_nom-197);}.cls-198{stroke:url(#Dégradé_sans_nom-198);}.cls-199{stroke:url(#Dégradé_sans_nom-199);}.cls-200{stroke:url(#Dégradé_sans_nom-200);}.cls-201{stroke:url(#Dégradé_sans_nom-201);}.cls-202{stroke:url(#Dégradé_sans_nom-202);}</style><linearGradient id="Dégradé_sans_nom" x1="231.37" y1="396.17" x2="330.61" y2="396.17" gradientUnits="userSpaceOnUse"><stop offset="0" stop-color="#fff"/><stop offset="1"/></linearGradient><linearGradient id="Dégradé_sans_nom-2" x1="365.38" y1="198" x2="431.35" y2="198" xlink:href="#Dégradé_sans_nom"/><linearGradient id="Dégradé_sans_nom-3" x1="767.34" y1="300.94" x2="913.83" y2="300.94" xlink:href="#Dégradé_sans_nom"/><linearGradient id="Dégradé_sans_nom-4" x1="265.87" y1="493.8" x2="395.01" y2="493.8" xlink:href="#Dégradé_sans_nom"/><linearGradient id="Dégradé_sans_nom-5" x1="214.08" y1="537.42" x2="339.72" y2="537.42" xlink:href="#Dégradé_sans_nom"/><linearGradient id="Dégradé_sans_nom-6" x1="237.88" y1="529.69" x2="320.99" y2="529.69" xlink:href="#Dégradé_sans_nom"/><linearGradient id="Dégradé_sans_nom-7" x1="766.62" y1="518.24" x2="925.56" y2="518.24" xlink:href="#Dégradé_sans_nom"/><linearGradient id="Dégradé_sans_nom-8" x1="802.44" y1="554.99" x2="879.62" y2="554.99" xlink:href="#Dégradé_sans_nom"/><linearGradient id="Dégradé_sans_nom-9" x1="846.42" y1="572.2" x2="951.29" y2="572.2" xlink:href="#Dégradé_sans_nom"/><linearGradient id="Dégradé_sans_nom-10" x1="851.9" y1="585.74" x2="935.26" y2="585.74" xlink:href="#Dégradé_sans_nom"/><linearGradient id="Dégradé_sans_nom-11" x1="282.74" y1="508.33" x2="397.65" y2="508.33" xlink:href="#Dégradé_sans_nom"/><linearGradient id="Dégradé_sans_nom-12" x1="357.89" y1="421.04" x2="824.55" y2="421.04" gradientTransform="translate(1182.45 842.08) rotate(-180)" xlink:href="#Dégradé_sans_nom"/><linearGradient id="Dégradé_sans_nom-13" x1="374.61" y1="399.57" x2="807.02" y2="399.57" gradientTransform="translate(1181.62 799.13) rotate(-180)" xlink:href="#Dégradé_sans_nom"/><linearGradient id="Dégradé_sans_nom-14" x1="109.18" y1="558.81" x2="677.86" y2="558.81" xlink:href="#Dégradé_sans_nom"/><linearGradient id="Dégradé_sans_nom-15" x1="370.75" y1="574.73" x2="406.92" y2="574.73" xlink:href="#Dégradé_sans_nom"/><linearGradient id="Dégradé_sans_nom-16" x1="216.5" y1="508.23" x2="242.03" y2="508.23" xlink:href="#Dégradé_sans_nom"/><linearGradient id="Dégradé_sans_nom-17" x1="249.56" y1="508.24" x2="274.45" y2="508.24" xlink:href="#Dégradé_sans_nom"/><linearGradient id="Dégradé_sans_nom-18" x1="282.62" y1="508.23" x2="306.86" y2="508.23" xlink:href="#Dégradé_sans_nom"/><linearGradient id="Dégradé_sans_nom-19" x1="315.68" y1="508.23" x2="339.28" y2="508.23" xlink:href="#Dégradé_sans_nom"/><linearGradient id="Dégradé_sans_nom-20" x1="348.74" y1="508.24" x2="371.7" y2="508.24" xlink:href="#Dégradé_sans_nom"/><linearGradient id="Dégradé_sans_nom-21" x1="576.59" y1="508.23" x2="613.78" y2="508.23" xlink:href="#Dégradé_sans_nom"/><linearGradient id="Dégradé_sans_nom-22" x1="544.18" y1="508.23" x2="569.7" y2="508.23" xlink:href="#Dégradé_sans_nom"/><linearGradient id="Dégradé_sans_nom-23" x1="511.76" y1="508.24" x2="536.64" y2="508.24" xlink:href="#Dégradé_sans_nom"/><linearGradient id="Dégradé_sans_nom-24" x1="479.34" y1="508.23" x2="503.58" y2="508.23" xlink:href="#Dégradé_sans_nom"/><linearGradient id="Dégradé_sans_nom-25" x1="446.92" y1="508.23" x2="470.52" y2="508.23" xlink:href="#Dégradé_sans_nom"/><linearGradient id="Dégradé_sans_nom-26" x1="414.5" y1="508.24" x2="437.47" y2="508.24" xlink:href="#Dégradé_sans_nom"/><linearGradient id="Dégradé_sans_nom-27" x1="382.01" y1="508.23" x2="404.49" y2="508.23" xlink:href="#Dégradé_sans_nom"/><linearGradient id="Dégradé_sans_nom-28" x1="165.14" y1="534.14" x2="214.35" y2="534.14" xlink:href="#Dégradé_sans_nom"/><linearGradient id="Dégradé_sans_nom-29" x1="560.24" y1="534.14" x2="620.96" y2="534.14" xlink:href="#Dégradé_sans_nom"/><linearGradient id="Dégradé_sans_nom-30" x1="526.75" y1="534.14" x2="552.65" y2="534.14" xlink:href="#Dégradé_sans_nom"/><linearGradient id="Dégradé_sans_nom-31" x1="493.25" y1="534.14" x2="518.5" y2="534.14" xlink:href="#Dégradé_sans_nom"/><linearGradient id="Dégradé_sans_nom-32" x1="459.76" y1="534.14" x2="484.34" y2="534.14" xlink:href="#Dégradé_sans_nom"/><linearGradient id="Dégradé_sans_nom-33" x1="426.26" y1="534.14" x2="450.19" y2="534.14" xlink:href="#Dégradé_sans_nom"/><linearGradient id="Dégradé_sans_nom-34" x1="157.59" y1="561.15" x2="208.63" y2="561.15" xlink:href="#Dégradé_sans_nom"/><linearGradient id="Dégradé_sans_nom-35" x1="216.4" y1="561.15" x2="243.26" y2="561.15" xlink:href="#Dégradé_sans_nom"/><linearGradient id="Dégradé_sans_nom-36" x1="251.68" y1="561.15" x2="428.6" y2="561.15" xlink:href="#Dégradé_sans_nom"/><linearGradient id="Dégradé_sans_nom-37" x1="438.99" y1="561.15" x2="463.88" y2="561.15" xlink:href="#Dégradé_sans_nom"/><linearGradient id="Dégradé_sans_nom-38" x1="473.62" y1="561.15" x2="499.17" y2="561.15" xlink:href="#Dégradé_sans_nom"/><linearGradient id="Dégradé_sans_nom-39" x1="508.25" y1="561.15" x2="534.45" y2="561.15" xlink:href="#Dégradé_sans_nom"/><linearGradient id="Dégradé_sans_nom-40" x1="542.88" y1="561.15" x2="569.74" y2="561.15" xlink:href="#Dégradé_sans_nom"/><linearGradient id="Dégradé_sans_nom-41" x1="577.5" y1="561.15" x2="628.54" y2="561.15" xlink:href="#Dégradé_sans_nom"/><linearGradient id="Dégradé_sans_nom-42" x1="393" y1="534.14" x2="416.09" y2="534.14" xlink:href="#Dégradé_sans_nom"/><linearGradient id="Dégradé_sans_nom-43" x1="358.66" y1="534.14" x2="382.15" y2="534.14" xlink:href="#Dégradé_sans_nom"/><linearGradient id="Dégradé_sans_nom-44" x1="324.51" y1="534.14" x2="348.65" y2="534.14" xlink:href="#Dégradé_sans_nom"/><linearGradient id="Dégradé_sans_nom-45" x1="290.35" y1="534.14" x2="315.16" y2="534.14" xlink:href="#Dégradé_sans_nom"/><linearGradient id="Dégradé_sans_nom-46" x1="256.2" y1="534.14" x2="281.67" y2="534.14" xlink:href="#Dégradé_sans_nom"/><linearGradient id="Dégradé_sans_nom-47" x1="222.05" y1="534.14" x2="248.17" y2="534.14" xlink:href="#Dégradé_sans_nom"/><linearGradient id="Dégradé_sans_nom-48" x1="179.12" y1="485.05" x2="193.94" y2="485.05" xlink:href="#Dégradé_sans_nom"/><linearGradient id="Dégradé_sans_nom-49" x1="200.49" y1="485.05" x2="225.42" y2="485.05" xlink:href="#Dégradé_sans_nom"/><linearGradient id="Dégradé_sans_nom-50" x1="232.54" y1="485.05" x2="256.9" y2="485.05" xlink:href="#Dégradé_sans_nom"/><linearGradient id="Dégradé_sans_nom-51" x1="264.6" y1="485.05" x2="288.38" y2="485.05" xlink:href="#Dégradé_sans_nom"/><linearGradient id="Dégradé_sans_nom-52" x1="296.65" y1="485.05" x2="319.86" y2="485.05" xlink:href="#Dégradé_sans_nom"/><linearGradient id="Dégradé_sans_nom-53" x1="328.71" y1="485.05" x2="351.34" y2="485.05" xlink:href="#Dégradé_sans_nom"/><linearGradient id="Dégradé_sans_nom-54" x1="360.76" y1="485.05" x2="382.82" y2="485.05" xlink:href="#Dégradé_sans_nom"/><linearGradient id="Dégradé_sans_nom-55" x1="392.81" y1="485.05" x2="414.68" y2="485.05" xlink:href="#Dégradé_sans_nom"/><linearGradient id="Dégradé_sans_nom-56" x1="424.3" y1="485.05" x2="446.74" y2="485.05" xlink:href="#Dégradé_sans_nom"/><linearGradient id="Dégradé_sans_nom-57" x1="455.78" y1="485.05" x2="478.79" y2="485.05" xlink:href="#Dégradé_sans_nom"/><linearGradient id="Dégradé_sans_nom-58" x1="487.26" y1="485.05" x2="510.85" y2="485.05" xlink:href="#Dégradé_sans_nom"/><linearGradient id="Dégradé_sans_nom-59" x1="518.74" y1="485.05" x2="542.9" y2="485.05" xlink:href="#Dégradé_sans_nom"/><linearGradient id="Dégradé_sans_nom-60" x1="550.22" y1="485.05" x2="574.96" y2="485.05" xlink:href="#Dégradé_sans_nom"/><linearGradient id="Dégradé_sans_nom-61" x1="581.7" y1="485.05" x2="607.01" y2="485.05" xlink:href="#Dégradé_sans_nom"/><linearGradient id="Dégradé_sans_nom-62" x1="307.12" y1="721.51" x2="875.47" y2="721.51" xlink:href="#Dégradé_sans_nom"/><linearGradient id="Dégradé_sans_nom-63" x1="517.36" y1="678.89" x2="665.23" y2="678.89" xlink:href="#Dégradé_sans_nom"/><linearGradient id="Dégradé_sans_nom-64" x1="205.74" y1="232.09" x2="254.86" y2="232.09" xlink:href="#Dégradé_sans_nom"/><linearGradient id="Dégradé_sans_nom-65" x1="267.32" y1="266.88" x2="303.06" y2="266.88" xlink:href="#Dégradé_sans_nom"/><linearGradient id="Dégradé_sans_nom-66" x1="307.48" y1="266.88" x2="331.53" y2="266.88" xlink:href="#Dégradé_sans_nom"/><linearGradient id="Dégradé_sans_nom-67" x1="206.29" y1="354.35" x2="230.34" y2="354.35" xlink:href="#Dégradé_sans_nom"/><linearGradient id="Dégradé_sans_nom-68" x1="335.09" y1="266.88" x2="391.75" y2="266.88" xlink:href="#Dégradé_sans_nom"/><linearGradient id="Dégradé_sans_nom-69" x1="206.29" y1="336.83" x2="243.05" y2="336.83" xlink:href="#Dégradé_sans_nom"/><linearGradient id="Dégradé_sans_nom-70" x1="256.15" y1="371.74" x2="278.98" y2="371.74" xlink:href="#Dégradé_sans_nom"/><linearGradient id="Dégradé_sans_nom-71" x1="206.29" y1="371.74" x2="250.55" y2="371.74" xlink:href="#Dégradé_sans_nom"/><linearGradient id="Dégradé_sans_nom-72" x1="206.29" y1="389.13" x2="231.15" y2="389.13" xlink:href="#Dégradé_sans_nom"/><linearGradient id="Dégradé_sans_nom-73" x1="263.22" y1="232.09" x2="298.38" y2="232.09" xlink:href="#Dégradé_sans_nom"/><linearGradient id="Dégradé_sans_nom-74" x1="263.22" y1="284.27" x2="298.38" y2="284.27" xlink:href="#Dégradé_sans_nom"/><linearGradient id="Dégradé_sans_nom-75" x1="246.14" y1="301.66" x2="261.73" y2="301.66" xlink:href="#Dégradé_sans_nom"/><linearGradient id="Dégradé_sans_nom-76" x1="231.55" y1="319.31" x2="265.33" y2="319.31" xlink:href="#Dégradé_sans_nom"/><linearGradient id="Dégradé_sans_nom-77" x1="269.28" y1="319.31" x2="315.54" y2="319.31" xlink:href="#Dégradé_sans_nom"/><linearGradient id="Dégradé_sans_nom-78" x1="206.29" y1="301.79" x2="241.45" y2="301.79" xlink:href="#Dégradé_sans_nom"/><linearGradient id="Dégradé_sans_nom-79" x1="206.29" y1="319.31" x2="227.56" y2="319.31" xlink:href="#Dégradé_sans_nom"/><linearGradient id="Dégradé_sans_nom-80" x1="267.62" y1="301.79" x2="287.74" y2="301.79" xlink:href="#Dégradé_sans_nom"/><linearGradient id="Dégradé_sans_nom-81" x1="206.86" y1="406.53" x2="226.98" y2="406.53" xlink:href="#Dégradé_sans_nom"/><linearGradient id="Dégradé_sans_nom-82" x1="206.15" y1="266.88" x2="241.31" y2="266.88" xlink:href="#Dégradé_sans_nom"/><linearGradient id="Dégradé_sans_nom-83" x1="236.36" y1="354.35" x2="271.52" y2="354.35" xlink:href="#Dégradé_sans_nom"/><linearGradient id="Dégradé_sans_nom-84" x1="236.78" y1="389.13" x2="271.94" y2="389.13" xlink:href="#Dégradé_sans_nom"/><linearGradient id="Dégradé_sans_nom-85" x1="297.46" y1="389.13" x2="332.61" y2="389.13" xlink:href="#Dégradé_sans_nom"/><linearGradient id="Dégradé_sans_nom-86" x1="206.15" y1="284.27" x2="255.84" y2="284.27" xlink:href="#Dégradé_sans_nom"/><linearGradient id="Dégradé_sans_nom-87" x1="434.32" y1="232.09" x2="469.48" y2="232.09" xlink:href="#Dégradé_sans_nom"/><linearGradient id="Dégradé_sans_nom-88" x1="312.64" y1="406.53" x2="347.8" y2="406.53" xlink:href="#Dégradé_sans_nom"/><linearGradient id="Dégradé_sans_nom-89" x1="479.11" y1="232.09" x2="502.97" y2="232.09" xlink:href="#Dégradé_sans_nom"/><linearGradient id="Dégradé_sans_nom-90" x1="556.46" y1="249.48" x2="580.33" y2="249.48" xlink:href="#Dégradé_sans_nom"/><linearGradient id="Dégradé_sans_nom-91" x1="306.57" y1="232.09" x2="351.09" y2="232.09" xlink:href="#Dégradé_sans_nom"/><linearGradient id="Dégradé_sans_nom-92" x1="476.13" y1="249.48" x2="520.65" y2="249.48" xlink:href="#Dégradé_sans_nom"/><linearGradient id="Dégradé_sans_nom-93" x1="422.76" y1="266.88" x2="467.28" y2="266.88" xlink:href="#Dégradé_sans_nom"/><linearGradient id="Dégradé_sans_nom-94" x1="366.1" y1="284.27" x2="410.62" y2="284.27" xlink:href="#Dégradé_sans_nom"/><linearGradient id="Dégradé_sans_nom-95" x1="471.75" y1="266.88" x2="503.69" y2="266.88" xlink:href="#Dégradé_sans_nom"/><linearGradient id="Dégradé_sans_nom-96" x1="382.28" y1="232.09" x2="426.79" y2="232.09" xlink:href="#Dégradé_sans_nom"/><linearGradient id="Dégradé_sans_nom-97" x1="332.62" y1="284.27" x2="359.14" y2="284.27" xlink:href="#Dégradé_sans_nom"/><linearGradient id="Dégradé_sans_nom-98" x1="312.64" y1="354.61" x2="339.16" y2="354.61" xlink:href="#Dégradé_sans_nom"/><linearGradient id="Dégradé_sans_nom-99" x1="358.14" y1="232.09" x2="375.07" y2="232.09" xlink:href="#Dégradé_sans_nom"/><linearGradient id="Dégradé_sans_nom-100" x1="306.57" y1="284.27" x2="323.5" y2="284.27" xlink:href="#Dégradé_sans_nom"/><linearGradient id="Dégradé_sans_nom-101" x1="530.14" y1="249.48" x2="547.08" y2="249.48" xlink:href="#Dégradé_sans_nom"/><linearGradient id="Dégradé_sans_nom-102" x1="205.74" y1="249.48" x2="231.66" y2="249.48" xlink:href="#Dégradé_sans_nom"/><linearGradient id="Dégradé_sans_nom-103" x1="272.23" y1="336.96" x2="292.91" y2="336.96" xlink:href="#Dégradé_sans_nom"/><linearGradient id="Dégradé_sans_nom-104" x1="236.78" y1="249.48" x2="245.83" y2="249.48" xlink:href="#Dégradé_sans_nom"/><linearGradient id="Dégradé_sans_nom-105" x1="401.97" y1="249.48" x2="469.48" y2="249.48" xlink:href="#Dégradé_sans_nom"/><linearGradient id="Dégradé_sans_nom-106" x1="338.16" y1="389.13" x2="405.67" y2="389.13" xlink:href="#Dégradé_sans_nom"/><linearGradient id="Dégradé_sans_nom-107" x1="250.74" y1="249.48" x2="259.95" y2="249.48" xlink:href="#Dégradé_sans_nom"/><linearGradient id="Dégradé_sans_nom-108" x1="374.07" y1="249.48" x2="396.83" y2="249.48" xlink:href="#Dégradé_sans_nom"/><linearGradient id="Dégradé_sans_nom-109" x1="395.83" y1="266.88" x2="418.58" y2="266.88" xlink:href="#Dégradé_sans_nom"/><linearGradient id="Dégradé_sans_nom-110" x1="283.94" y1="406.53" x2="306.7" y2="406.53" xlink:href="#Dégradé_sans_nom"/><linearGradient id="Dégradé_sans_nom-111" x1="322.01" y1="249.48" x2="369.31" y2="249.48" xlink:href="#Dégradé_sans_nom"/><linearGradient id="Dégradé_sans_nom-112" x1="278.92" y1="354.61" x2="306.96" y2="354.61" xlink:href="#Dégradé_sans_nom"/><linearGradient id="Dégradé_sans_nom-113" x1="277.18" y1="389.13" x2="291.7" y2="389.13" xlink:href="#Dégradé_sans_nom"/><linearGradient id="Dégradé_sans_nom-114" x1="299.51" y1="249.48" x2="316.44" y2="249.48" xlink:href="#Dégradé_sans_nom"/><linearGradient id="Dégradé_sans_nom-115" x1="245.89" y1="266.88" x2="262.82" y2="266.88" xlink:href="#Dégradé_sans_nom"/><linearGradient id="Dégradé_sans_nom-116" x1="249.07" y1="336.96" x2="266" y2="336.96" xlink:href="#Dégradé_sans_nom"/><linearGradient id="Dégradé_sans_nom-117" x1="265.68" y1="249.48" x2="294.44" y2="249.48" xlink:href="#Dégradé_sans_nom"/><linearGradient id="Dégradé_sans_nom-118" x1="683.09" y1="355.89" x2="711.49" y2="355.89" xlink:href="#Dégradé_sans_nom"/><linearGradient id="Dégradé_sans_nom-119" x1="686.33" y1="352.35" x2="705.2" y2="352.35" xlink:href="#Dégradé_sans_nom"/><linearGradient id="Dégradé_sans_nom-120" x1="485.53" y1="291.56" x2="490.12" y2="291.56" xlink:href="#Dégradé_sans_nom"/><linearGradient id="Dégradé_sans_nom-121" x1="602.77" y1="355.91" x2="631.2" y2="355.91" xlink:href="#Dégradé_sans_nom"/><linearGradient id="Dégradé_sans_nom-122" x1="606.03" y1="352.35" x2="624.9" y2="352.35" xlink:href="#Dégradé_sans_nom"/><linearGradient id="Dégradé_sans_nom-123" x1="405.24" y1="291.56" x2="409.82" y2="291.56" xlink:href="#Dégradé_sans_nom"/><linearGradient id="Dégradé_sans_nom-124" x1="579.77" y1="282.44" x2="694.01" y2="282.44" xlink:href="#Dégradé_sans_nom"/><linearGradient id="Dégradé_sans_nom-125" x1="566.18" y1="279.61" x2="661.2" y2="279.61" xlink:href="#Dégradé_sans_nom"/><linearGradient id="Dégradé_sans_nom-126" x1="586.48" y1="104.93" x2="640.9" y2="104.93" xlink:href="#Dégradé_sans_nom"/><linearGradient id="Dégradé_sans_nom-127" x1="576.39" y1="218.19" x2="633.23" y2="218.19" xlink:href="#Dégradé_sans_nom"/><linearGradient id="Dégradé_sans_nom-128" x1="563.84" y1="175.66" x2="648.26" y2="175.66" xlink:href="#Dégradé_sans_nom"/><linearGradient id="Dégradé_sans_nom-129" x1="602.87" y1="121.43" x2="622.61" y2="121.43" xlink:href="#Dégradé_sans_nom"/><linearGradient id="Dégradé_sans_nom-130" x1="592.56" y1="137.42" x2="623.16" y2="137.42" xlink:href="#Dégradé_sans_nom"/><linearGradient id="Dégradé_sans_nom-131" x1="589.35" y1="96.88" x2="625.73" y2="96.88" xlink:href="#Dégradé_sans_nom"/><linearGradient id="Dégradé_sans_nom-132" x1="603.57" y1="116.33" x2="613.67" y2="116.33" xlink:href="#Dégradé_sans_nom"/><linearGradient id="Dégradé_sans_nom-133" x1="498.54" y1="211.19" x2="521.76" y2="211.19" xlink:href="#Dégradé_sans_nom"/><linearGradient id="Dégradé_sans_nom-134" x1="492.25" y1="219.51" x2="512.65" y2="219.51" xlink:href="#Dégradé_sans_nom"/><linearGradient id="Dégradé_sans_nom-135" x1="566.18" y1="238.76" x2="681.98" y2="238.76" xlink:href="#Dégradé_sans_nom"/><linearGradient id="Dégradé_sans_nom-136" x1="408.23" y1="168.99" x2="471.24" y2="168.99" xlink:href="#Dégradé_sans_nom"/><linearGradient id="Dégradé_sans_nom-137" x1="595.78" y1="220.76" x2="630.66" y2="220.76" xlink:href="#Dégradé_sans_nom"/><linearGradient id="Dégradé_sans_nom-138" x1="409.95" y1="169.33" x2="442.57" y2="169.33" xlink:href="#Dégradé_sans_nom"/><linearGradient id="Dégradé_sans_nom-139" x1="619.59" y1="177.95" x2="684.08" y2="177.95" xlink:href="#Dégradé_sans_nom"/><linearGradient id="Dégradé_sans_nom-140" x1="511.98" y1="174.92" x2="610.6" y2="174.92" xlink:href="#Dégradé_sans_nom"/><linearGradient id="Dégradé_sans_nom-141" x1="438.67" y1="153.75" x2="513.67" y2="153.75" xlink:href="#Dégradé_sans_nom"/><linearGradient id="Dégradé_sans_nom-142" x1="671.04" y1="219.66" x2="682.57" y2="219.66" xlink:href="#Dégradé_sans_nom"/><linearGradient id="Dégradé_sans_nom-143" x1="589" y1="109" x2="640.38" y2="109" xlink:href="#Dégradé_sans_nom"/><linearGradient id="Dégradé_sans_nom-144" x1="275.65" y1="635.7" x2="342.7" y2="635.7" xlink:href="#Dégradé_sans_nom"/><linearGradient id="Dégradé_sans_nom-145" x1="261.39" y1="641.3" x2="300.33" y2="641.3" xlink:href="#Dégradé_sans_nom"/><linearGradient id="Dégradé_sans_nom-146" x1="263.77" y1="638.68" x2="283.11" y2="638.68" xlink:href="#Dégradé_sans_nom"/><linearGradient id="Dégradé_sans_nom-147" x1="304.67" y1="639.22" x2="346.33" y2="639.22" xlink:href="#Dégradé_sans_nom"/><linearGradient id="Dégradé_sans_nom-148" x1="326.31" y1="606.57" x2="363.06" y2="606.57" xlink:href="#Dégradé_sans_nom"/><linearGradient id="Dégradé_sans_nom-149" x1="331.36" y1="533.39" x2="373.5" y2="533.39" xlink:href="#Dégradé_sans_nom"/><linearGradient id="Dégradé_sans_nom-150" x1="298.83" y1="522.93" x2="345.45" y2="522.93" xlink:href="#Dégradé_sans_nom"/><linearGradient id="Dégradé_sans_nom-151" x1="302.93" y1="547.56" x2="360.58" y2="547.56" xlink:href="#Dégradé_sans_nom"/><linearGradient id="Dégradé_sans_nom-152" x1="331.9" y1="614.02" x2="372.2" y2="614.02" xlink:href="#Dégradé_sans_nom"/><linearGradient id="Dégradé_sans_nom-153" x1="328.99" y1="614.99" x2="352.85" y2="614.99" xlink:href="#Dégradé_sans_nom"/><linearGradient id="Dégradé_sans_nom-154" x1="352.26" y1="551.3" x2="405.54" y2="551.3" xlink:href="#Dégradé_sans_nom"/><linearGradient id="Dégradé_sans_nom-155" x1="79.47" y1="740.32" x2="115.1" y2="740.32" xlink:href="#Dégradé_sans_nom"/><linearGradient id="Dégradé_sans_nom-156" x1="273.6" y1="824.97" x2="314.23" y2="824.97" xlink:href="#Dégradé_sans_nom"/><linearGradient id="Dégradé_sans_nom-157" x1="4.53" y1="678.79" x2="59.29" y2="678.79" xlink:href="#Dégradé_sans_nom"/><linearGradient id="Dégradé_sans_nom-158" x1="197.78" y1="762.58" x2="241.76" y2="762.58" xlink:href="#Dégradé_sans_nom"/><linearGradient id="Dégradé_sans_nom-159" x1="240.06" y1="691.04" x2="409.35" y2="691.04" xlink:href="#Dégradé_sans_nom"/><linearGradient id="Dégradé_sans_nom-160" x1="279.72" y1="734.82" x2="372.8" y2="734.82" xlink:href="#Dégradé_sans_nom"/><linearGradient id="Dégradé_sans_nom-161" x1="349.1" y1="634.65" x2="430.59" y2="634.65" xlink:href="#Dégradé_sans_nom"/><linearGradient id="Dégradé_sans_nom-162" x1="300.82" y1="639.68" x2="376.93" y2="639.68" xlink:href="#Dégradé_sans_nom"/><linearGradient id="Dégradé_sans_nom-163" x1="287.16" y1="642.54" x2="324.81" y2="642.54" xlink:href="#Dégradé_sans_nom"/><linearGradient id="Dégradé_sans_nom-164" x1="289.46" y1="639.97" x2="308.25" y2="639.97" xlink:href="#Dégradé_sans_nom"/><linearGradient id="Dégradé_sans_nom-165" x1="359.46" y1="666.85" x2="394.05" y2="666.85" xlink:href="#Dégradé_sans_nom"/><linearGradient id="Dégradé_sans_nom-166" x1="342.82" y1="598.63" x2="394.39" y2="598.63" xlink:href="#Dégradé_sans_nom"/><linearGradient id="Dégradé_sans_nom-167" x1="63.15" y1="586.44" x2="169.76" y2="586.44" xlink:href="#Dégradé_sans_nom"/><linearGradient id="Dégradé_sans_nom-168" x1="237.63" y1="622.48" x2="321.06" y2="622.48" xlink:href="#Dégradé_sans_nom"/><linearGradient id="Dégradé_sans_nom-169" x1="259.07" y1="654.26" x2="369.09" y2="654.26" xlink:href="#Dégradé_sans_nom"/><linearGradient id="Dégradé_sans_nom-170" x1="344.58" y1="597.2" x2="383.86" y2="597.2" xlink:href="#Dégradé_sans_nom"/><linearGradient id="Dégradé_sans_nom-171" x1="687.39" y1="553.69" x2="812.42" y2="553.69" xlink:href="#Dégradé_sans_nom"/><linearGradient id="Dégradé_sans_nom-172" x1="788.62" y1="558.66" x2="820.1" y2="558.66" xlink:href="#Dégradé_sans_nom"/><linearGradient id="Dégradé_sans_nom-173" x1="706.75" y1="590.1" x2="777.11" y2="590.1" xlink:href="#Dégradé_sans_nom"/><linearGradient id="Dégradé_sans_nom-174" x1="696.16" y1="549.27" x2="751.03" y2="549.27" xlink:href="#Dégradé_sans_nom"/><linearGradient id="Dégradé_sans_nom-175" x1="715.46" y1="575.89" x2="741.33" y2="575.89" xlink:href="#Dégradé_sans_nom"/><linearGradient id="Dégradé_sans_nom-176" x1="767.99" y1="610.84" x2="786.92" y2="610.84" xlink:href="#Dégradé_sans_nom"/><linearGradient id="Dégradé_sans_nom-177" x1="748.69" y1="479.6" x2="780.18" y2="479.6" xlink:href="#Dégradé_sans_nom"/><linearGradient id="Dégradé_sans_nom-178" x1="749" y1="480.6" x2="792.5" y2="480.6" xlink:href="#Dégradé_sans_nom"/><linearGradient id="Dégradé_sans_nom-179" x1="751.97" y1="462.48" x2="795.83" y2="462.48" xlink:href="#Dégradé_sans_nom"/><linearGradient id="Dégradé_sans_nom-180" x1="748.01" y1="480.2" x2="759.89" y2="480.2" xlink:href="#Dégradé_sans_nom"/><linearGradient id="Dégradé_sans_nom-181" x1="748.02" y1="496" x2="786.86" y2="496" xlink:href="#Dégradé_sans_nom"/><linearGradient id="Dégradé_sans_nom-182" x1="767.43" y1="496.6" x2="779.27" y2="496.6" xlink:href="#Dégradé_sans_nom"/><linearGradient id="Dégradé_sans_nom-183" x1="671.57" y1="626.53" x2="881.65" y2="626.53" xlink:href="#Dégradé_sans_nom"/><linearGradient id="Dégradé_sans_nom-184" x1="754.94" y1="618.36" x2="854.62" y2="618.36" xlink:href="#Dégradé_sans_nom"/><linearGradient id="Dégradé_sans_nom-185" x1="755.87" y1="619.06" x2="779.77" y2="619.06" xlink:href="#Dégradé_sans_nom"/><linearGradient id="Dégradé_sans_nom-186" x1="792.02" y1="616.96" x2="842.36" y2="616.96" gradientTransform="translate(11.05 -14.37) rotate(1.01)" xlink:href="#Dégradé_sans_nom"/><linearGradient id="Dégradé_sans_nom-187" x1="779.11" y1="590.77" x2="866.06" y2="590.77" xlink:href="#Dégradé_sans_nom"/><linearGradient id="Dégradé_sans_nom-188" x1="726.15" y1="667.02" x2="765.38" y2="667.02" xlink:href="#Dégradé_sans_nom"/><linearGradient id="Dégradé_sans_nom-189" x1="686.54" y1="676.32" x2="747.66" y2="676.32" xlink:href="#Dégradé_sans_nom"/><linearGradient id="Dégradé_sans_nom-190" x1="686.55" y1="679.33" x2="746.21" y2="679.33" xlink:href="#Dégradé_sans_nom"/><linearGradient id="Dégradé_sans_nom-191" x1="745.9" y1="673.99" x2="747.66" y2="673.99" xlink:href="#Dégradé_sans_nom"/><linearGradient id="Dégradé_sans_nom-192" x1="709.16" y1="673.81" x2="714.24" y2="673.81" xlink:href="#Dégradé_sans_nom"/><linearGradient id="Dégradé_sans_nom-193" x1="714.06" y1="673.31" x2="719.19" y2="673.31" xlink:href="#Dégradé_sans_nom"/><linearGradient id="Dégradé_sans_nom-194" x1="718.67" y1="672.9" x2="724.3" y2="672.9" xlink:href="#Dégradé_sans_nom"/><linearGradient id="Dégradé_sans_nom-195" x1="735.56" y1="646.06" x2="881.25" y2="646.06" xlink:href="#Dégradé_sans_nom"/><linearGradient id="Dégradé_sans_nom-196" x1="552.79" y1="579.44" x2="604.62" y2="579.44" xlink:href="#Dégradé_sans_nom"/><linearGradient id="Dégradé_sans_nom-197" x1="670.39" y1="618.34" x2="792.01" y2="618.34" xlink:href="#Dégradé_sans_nom"/><linearGradient id="Dégradé_sans_nom-198" x1="777.93" y1="671.34" x2="843.96" y2="671.34" xlink:href="#Dégradé_sans_nom"/><linearGradient id="Dégradé_sans_nom-199" x1="779.42" y1="680.34" x2="843.95" y2="680.34" xlink:href="#Dégradé_sans_nom"/><linearGradient id="Dégradé_sans_nom-200" x1="807.25" y1="667.08" x2="823.37" y2="667.08" xlink:href="#Dégradé_sans_nom"/><linearGradient id="Dégradé_sans_nom-201" x1="801.45" y1="665.52" x2="817.07" y2="665.52" xlink:href="#Dégradé_sans_nom"/><linearGradient id="Dégradé_sans_nom-202" x1="795.9" y1="664.17" x2="810.99" y2="664.17" xlink:href="#Dégradé_sans_nom"/></defs><path class="cls-1" d="M329.74,363.59l-.27-1.66h-1.78c-34.07,0-45.09-10.25-45.19-10.35L281,350.06l-1.52,1.51c-.11.11-11.08,10.36-45.19,10.36h-1.79l-.27,1.67c-.08.51-7.3,52,47.82,78.37l.94.46.94-.46C337.21,415.51,329.82,364.11,329.74,363.59Zm-8.28,31.84c-6.8,18.44-20.42,32.78-40.48,42.62-20.06-9.84-33.68-24.18-40.48-42.62a71.82,71.82,0,0,1-4.34-29.62c28.34-.3,40.92-7.46,44.82-10.32,3.91,2.86,16.5,10,44.83,10.32A72.05,72.05,0,0,1,321.46,395.43Z" transform="translate(-197.78 -66.5)"/><path class="cls-2" d="M396.7,228.4l-1.94-4.74a29.4,29.4,0,0,1-5.09-1.1L385.72,226l-11.46-7.64,2.21-4.64a25.85,25.85,0,0,1-2.77-4.15l-5.42-.16-2.33-13,5.06-1.81a23.84,23.84,0,0,1,1.17-4.78l-3.71-3.7,8.16-10.75,4.94,2.08a26.79,26.79,0,0,1,4.43-2.6l.17-5.08L400,167.6l1.94,4.74a28.5,28.5,0,0,1,5.09,1.1L411,170l11.46,7.65-2.21,4.64A25,25,0,0,1,423,186.4l5.42.16,2.33,13-5.05,1.82a25.49,25.49,0,0,1-1.18,4.78l3.71,3.7-8.16,10.74-4.94-2.07a27.12,27.12,0,0,1-4.42,2.6l-.18,5.08Zm-7.93-10,1.13.4a24.84,24.84,0,0,0,6.42,1.38l1.2.1,1.66,4.06,7.62-1.2.15-4.35,1.11-.46a23.87,23.87,0,0,0,5.57-3.28l.93-.73,4.24,1.78,4.48-5.91L420.1,207l.43-1.06a20.75,20.75,0,0,0,1.48-6l.1-1.13,4.33-1.55-1.28-7.15-4.64-.14-.49-1a22.15,22.15,0,0,0-3.49-5.22l-.78-.87,1.89-4-6.29-4.21-3.39,3-1.13-.41a25,25,0,0,0-6.41-1.38l-1.21-.09-1.66-4.07-7.62,1.2-.15,4.35-1.11.47A24.11,24.11,0,0,0,383.1,181l-.92.73-4.24-1.77-4.48,5.9,3.18,3.18-.44,1.06a21.08,21.08,0,0,0-1.47,6l-.11,1.13-4.33,1.56,1.29,7.14,4.64.14.49,1a22.21,22.21,0,0,0,3.49,5.23l.78.87-1.89,4,6.29,4.2Zm9.56-6a15.85,15.85,0,0,1-8.83-2.66,13.79,13.79,0,0,1-3.59-20,16,16,0,0,1,21.33-3.37,14.17,14.17,0,0,1,6.21,9.31,13.54,13.54,0,0,1-2.62,10.69,15.37,15.37,0,0,1-9.92,5.83A17.25,17.25,0,0,1,398.33,212.34Zm.06-25.05a11.69,11.69,0,0,0-9.33,4.5,10.1,10.1,0,0,0-1.95,8,10.51,10.51,0,0,0,4.64,6.94h0a12,12,0,0,0,8.52,1.84,11.46,11.46,0,0,0,7.4-4.35,10.16,10.16,0,0,0,2-8,10.6,10.6,0,0,0-4.65-6.95A11.83,11.83,0,0,0,398.39,187.29Z" transform="translate(-197.78 -66.5)"/><path class="cls-3" d="M837.94,369.09l-4.32-10.59a64.6,64.6,0,0,1-13.56-2.91l-8.81,7.75-23.93-16L792.25,337A57,57,0,0,1,784.87,326l-12.08-.35-4.88-27.16,11.29-4a54.37,54.37,0,0,1,3.11-12.72L774,273.44l17-22.44,11,4.62a62.75,62.75,0,0,1,11.79-6.92l.38-11.33,29-4.57,4.32,10.58a65.12,65.12,0,0,1,13.57,2.92l8.8-7.75,23.92,16-4.92,10.34a56.92,56.92,0,0,1,7.38,11.07l12.08.35,4.88,27.15L902,307.47a54.25,54.25,0,0,1-3.11,12.72l8.27,8.26-17,22.43-11-4.62a62,62,0,0,1-11.8,6.93l-.38,11.32ZM818.86,350l1.51.54a59.43,59.43,0,0,0,15.31,3.29l1.61.13,4,9.7,20.62-3.26.35-10.38,1.48-.62A56.55,56.55,0,0,0,877,341.59l1.24-1,10.1,4.23,12.12-16-7.57-7.56.58-1.42A49.77,49.77,0,0,0,897,305.54l.14-1.51,10.34-3.71L904,281l-11.06-.32-.66-1.39a52.51,52.51,0,0,0-8.33-12.48l-1-1.16,4.51-9.47-17-11.37-8.08,7.1-1.5-.55a59.74,59.74,0,0,0-15.31-3.28l-1.62-.13-4-9.7-20.62,3.26L819,251.86l-1.48.62a57.1,57.1,0,0,0-13.31,7.81l-1.24,1L792.82,257,780.7,273l7.57,7.57-.58,1.41a49.93,49.93,0,0,0-3.51,14.35l-.14,1.52-10.34,3.71,3.47,19.33,11.07.33.66,1.38a52.46,52.46,0,0,0,8.33,12.49l1,1.16-4.51,9.47,17,11.37Zm21.68-17.75a34.76,34.76,0,0,1-19.32-5.79c-15-10-18.52-29.6-7.84-43.68s31.56-17.36,46.57-7.35,18.52,29.6,7.85,43.67A34.15,34.15,0,0,1,840.54,332.25Zm.08-57.77a28.87,28.87,0,0,0-23,11.11,25.07,25.07,0,0,0-4.84,19.75,26.2,26.2,0,0,0,11.47,17.17c12.69,8.47,30.35,5.68,39.38-6.22a25,25,0,0,0,4.84-19.74A26.2,26.2,0,0,0,857,279.37,29.47,29.47,0,0,0,840.62,274.48Z" transform="translate(-197.78 -66.5)"/><path class="cls-4" d="M389.76,563.26c-4.46-11.63-9.51-24.8-3.88-38.24,7.58-18.09-8.43-27.48-22.56-35.78-12.1-7.11-23.53-13.82-19.66-24.91,4.24-12.11,4-21.37-.82-27.51-4-5.19-11.21-7.9-20.77-7.85-7.6,0-14.46-8.71-21.72-18-8.52-10.87-17.33-22.11-28.38-19.6a6.54,6.54,0,0,0-4.39,3.13c-3.89,6.78,2.24,23.06,8.75,40.32,7,18.61,15,39.7,9.75,48.71-5.66,9.82,4.65,18.83,15.58,28.36,11.62,10.13,24.77,21.61,21.24,36-3.32,13.49-4.08,18.47-2,21.39,1.61,2.3,4.83,2.88,9.72,3.75a110.73,110.73,0,0,1,12.68,2.84c22.14,6.45,28.61,19.94,28.67,20.07l.27.58.67-.09c10.65-1.58,17-4.44,19.85-9,.15-.24.29-.5.43-.75C396.38,580.54,393.3,572.5,389.76,563.26Z" transform="translate(-197.78 -66.5)"/><path class="cls-5" d="M333.11,537.56c3.65,5.38,6.31,10,6.1,16.58-.2,6.1-1.15,12.15-1.75,18.22-.12,1.26-.21,2.51-.3,3.76-1.81-1.5-3.62-3-5.43-4.37-.84-.06-1.69-.09-2.54-.09,2.59,2,5.22,4.13,7.86,6.31-.25,4.22-.34,8.45-.34,12.69,0,2.55-.12,5.16.1,7.71-2.41-1.37-4.83-2.76-7.19-4.14-7.17-4.15-13.94-8.07-19-10.1-3.93-1.56-8.35-2.92-12.62-4.22-11-3.37-22.38-6.86-26.1-14.19-1.92-3.79-1.73-8.33.55-13.9,5.85-14.19.37-16.66-8.71-20.77-6.59-3-15.61-7.07-24.67-17.32-4-4.52-7.49-8.37-10.58-11.77-9.33-10.25-14.47-15.89-13.81-19.19a3.76,3.76,0,0,1,1.57-2.18,11.1,11.1,0,0,1,1.73-1c3.53-1.77,7-.41,10.93,1.16,5.3,2.1,11.9,4.71,20.94.37,7.17-3.44,15.15-6.63,20-4.08,3.34,1.75,5.25,6.18,5.85,13.56.18,2.33,1,3.94,2.4,4.91,2.05,1.39,5.13,1.22,8.77.53l0,0c2.44,3.21,5.69,4.79,9.59,6.06,5.42,1.78,9.45,3.49,13.39,7.61C318.22,518.46,326.34,527.61,333.11,537.56Z" transform="translate(-197.78 -66.5)"/><path class="cls-6" d="M303.74,551.77c-5.55-3.47-10.31-11.83-14.91-19.92-6.27-11-12.76-22.41-21.72-22.19-14.35.34-27.19-15.5-27.32-15.66l-1.19.84c.54.67,13.43,16.57,28.55,16.2,8.05-.19,14.31,10.82,20.37,21.46,4.69,8.24,9.54,16.76,15.4,20.43,3.49,2.18,9.94,6.52,17.57,12.13v-1.84C313.63,558.23,307.65,554.22,303.74,551.77Z" transform="translate(-197.78 -66.5)"/><path class="cls-7" d="M788.8,658.72s8.33-19.3-6.83-46.75-27.42-23.23,9.11-44.34.23-87.62,31.33-96.07,58.12-116.09,81.76-102.38-7.88,66.49,9,82.32,19.14,36-15.76,52.31,24.77,78.6-22.52,97.6S841.18,694.92,788.8,658.72Z" transform="translate(-197.78 -66.5)"/><path class="cls-8" d="M803.24,679.21c0-.25-5.13-25,10.93-56.92,16.37-32.55,24.2-68.12,21-95.18-1.76-14.64,8.24-20.37,17.93-25.91,9.52-5.46,19.38-11.1,18.83-25.53-.49-13,5.4-43.61,5.65-44.9l2.08.35c-.06.32-6.1,31.65-5.61,44.48.59,15.59-9.8,21.54-19.85,27.29-9.54,5.46-18.54,10.61-16.93,24,3.28,27.4-4.62,63.38-21.15,96.24-15.74,31.32-10.82,55.44-10.76,55.68Z" transform="translate(-197.78 -66.5)"/><path class="cls-9" d="M928.89,518.81c13.2-5.9,27.15-3.21,19.92,9.17s-18.15,13.32-16.09,23,7.33,20.38-9.76,26.55-25.12,5.06-35.57,23.12-14,31.45-32,27.06-3.05-26.59,6.24-35.88a37.16,37.16,0,0,0,12.47-28.06c-.15-18-8.06-30.1,16.75-28.93S920,522.79,928.89,518.81Z" transform="translate(-197.78 -66.5)"/><path class="cls-10" d="M852.53,640.43c.73-2.37,18-58.17,32.22-64.25,14.48-6.21,22.27-22.42,25.63-31.52,4.38-11.87,23.26-14.13,24.06-14.22l.26,2c-.19,0-18.36,2.21-22.3,12.89-4.24,11.49-12.32,26.49-26.77,32.69-13.29,5.7-30.87,62.41-31,63Z" transform="translate(-197.78 -66.5)"/><path class="cls-11" d="M396.61,595.46c-28.37-6.66-28.75-21-29.12-34.82-.3-11.31-.59-22-15.91-28.56-20.31-8.71-20.82-24.86-21.27-39.12-.34-10.6-.66-20.61-9.14-26-20.38-13-37.57-44.62-37.74-44.93l1.56-.74c.17.31,17.16,31.53,37.17,44.32,9.21,5.88,9.54,16.3,9.89,27.34.46,14.44.94,29.39,20.26,37.67,16.31,7,16.62,18.69,16.93,30,.36,13.84.71,26.92,27.79,33.27Z" transform="translate(-197.78 -66.5)"/><path class="cls-12" d="M358.39,259.33H824.05a0,0,0,0,1,0,0V573.27a9.47,9.47,0,0,1-9.47,9.47H367.87a9.47,9.47,0,0,1-9.47-9.47V259.33A0,0,0,0,1,358.39,259.33Z" transform="translate(984.67 775.58) rotate(180)"/><rect class="cls-13" x="374.86" y="275.18" width="431.91" height="248.78" transform="translate(983.85 732.63) rotate(180)"/><polygon class="cls-14" points="626.26 469.55 393.52 469.55 160.78 469.55 109.84 648.07 395.05 648.07 677.2 648.07 626.26 469.55"/><path class="cls-15" d="M376.17,567.37h28.6c1.19,0,2.09.87,1.87,1.81l-2.77,11.66a1.85,1.85,0,0,1-1.87,1.24H372.91c-1.22,0-2.13-.9-1.86-1.85l3.26-11.67A1.86,1.86,0,0,1,376.17,567.37Z" transform="translate(-197.78 -66.5)"/><polygon class="cls-16" points="220.1 500.87 241.72 500.87 238.85 515.58 216.82 515.58 220.1 500.87"/><polygon class="cls-17" points="252.54 500.87 274.15 500.87 271.89 515.58 249.86 515.61 252.54 500.87"/><polygon class="cls-18" points="284.96 500.87 306.58 500.87 304.94 515.58 282.91 515.58 284.96 500.87"/><polygon class="cls-19" points="317.4 500.87 339.01 500.87 337.99 515.58 315.96 515.58 317.4 500.87"/><polygon class="cls-20" points="349.82 500.87 371.45 500.87 371.04 515.58 349 515.61 349.82 500.87"/><polygon class="cls-21" points="609.34 500.87 576.91 500.87 580.4 515.58 613.45 515.58 609.34 500.87"/><polygon class="cls-22" points="566.1 500.87 544.48 500.87 547.36 515.58 569.39 515.58 566.1 500.87"/><polygon class="cls-23" points="533.67 500.87 512.05 500.87 514.31 515.58 536.35 515.61 533.67 500.87"/><polygon class="cls-24" points="501.24 500.87 479.62 500.87 481.26 515.58 503.3 515.58 501.24 500.87"/><polygon class="cls-25" points="468.81 500.87 447.19 500.87 448.22 515.58 470.25 515.58 468.81 500.87"/><polygon class="cls-26" points="436.38 500.87 414.76 500.87 415.17 515.58 437.2 515.61 436.38 500.87"/><polygon class="cls-27" points="382.26 500.87 403.88 500.87 404.23 515.58 382.26 515.58 382.26 500.87"/><polygon class="cls-28" points="168.88 526.55 214.06 526.55 211.48 541.73 165.45 541.73 168.88 526.55"/><polygon class="cls-29" points="616.39 526.55 560.55 526.55 563.73 541.73 620.63 541.73 616.39 526.55"/><polygon class="cls-30" points="549.38 526.55 527.04 526.55 529.59 541.73 552.35 541.73 549.38 526.55"/><polygon class="cls-31" points="515.88 526.55 493.54 526.55 495.44 541.73 518.21 541.73 515.88 526.55"/><polygon class="cls-32" points="482.37 526.55 460.03 526.55 461.3 541.73 484.06 541.73 482.37 526.55"/><polygon class="cls-33" points="448.86 526.55 426.52 526.55 427.16 541.73 449.92 541.73 448.86 526.55"/><polygon class="cls-34" points="162.13 553.61 208.32 553.61 204.95 568.69 157.92 568.69 162.13 553.61"/><polygon class="cls-35" points="219.86 553.61 242.96 553.61 240.22 568.69 216.71 568.69 219.86 553.61"/><polygon class="cls-36" points="254.5 553.61 277.6 553.61 427.69 553.61 428.34 568.69 251.98 568.69 254.5 553.61"/><polygon class="cls-37" points="439.25 553.61 462.35 553.61 463.61 568.69 440.1 568.69 439.25 553.61"/><polygon class="cls-38" points="473.89 553.61 496.99 553.61 498.88 568.69 475.37 568.69 473.89 553.61"/><polygon class="cls-39" points="508.54 553.61 531.63 553.61 534.15 568.69 510.64 568.69 508.54 553.61"/><polygon class="cls-40" points="543.17 553.61 566.27 553.61 569.43 568.69 545.91 568.69 543.17 553.61"/><polygon class="cls-41" points="577.82 553.61 624 553.61 628.21 568.69 581.18 568.69 577.82 553.61"/><polygon class="cls-42" points="415.4 526.55 393.25 526.55 393.25 541.73 415.83 541.73 415.4 526.55"/><polygon class="cls-43" points="381.9 526.55 359.56 526.55 358.92 541.73 381.68 541.73 381.9 526.55"/><polygon class="cls-44" points="348.39 526.55 326.05 526.55 324.78 541.73 347.54 541.73 348.39 526.55"/><polygon class="cls-45" points="314.88 526.55 292.55 526.55 290.64 541.73 313.4 541.73 314.88 526.55"/><polygon class="cls-46" points="281.38 526.55 259.04 526.55 256.49 541.73 279.26 541.73 281.38 526.55"/><polygon class="cls-47" points="247.87 526.55 225.53 526.55 222.35 541.73 245.12 541.73 247.87 526.55"/><polygon class="cls-48" points="179.45 491.62 183.12 478.48 193.62 478.48 190.19 491.62 179.45 491.62"/><polygon class="cls-49" points="204.11 478.48 225.11 478.48 222.17 491.62 200.81 491.62 204.11 478.48"/><polygon class="cls-50" points="235.61 478.48 256.6 478.48 254.21 491.62 232.85 491.62 235.61 478.48"/><polygon class="cls-51" points="267.1 478.48 288.09 478.48 286.26 491.62 264.89 491.62 267.1 478.48"/><polygon class="cls-52" points="298.59 478.48 319.58 478.48 318.3 491.62 296.94 491.62 298.59 478.48"/><polygon class="cls-53" points="330.08 478.48 351.08 478.48 350.34 491.62 328.98 491.62 330.08 478.48"/><polygon class="cls-54" points="361.57 478.48 382.57 478.48 382.38 491.62 361.02 491.62 361.57 478.48"/><polygon class="cls-55" points="393.06 478.48 414.06 478.48 414.43 491.62 393.06 491.62 393.06 478.48"/><polygon class="cls-56" points="424.56 478.48 445.55 478.48 446.47 491.62 425.11 491.62 424.56 478.48"/><polygon class="cls-57" points="456.05 478.48 477.05 478.48 478.51 491.62 457.15 491.62 456.05 478.48"/><polygon class="cls-58" points="487.54 478.48 508.54 478.48 510.56 491.62 489.19 491.62 487.54 478.48"/><polygon class="cls-59" points="519.03 478.48 540.03 478.48 542.6 491.62 521.24 491.62 519.03 478.48"/><polygon class="cls-60" points="550.53 478.48 571.52 478.48 574.64 491.62 553.28 491.62 550.53 478.48"/><polygon class="cls-61" points="582.02 478.48 603.01 478.48 606.68 491.62 585.32 491.62 582.02 478.48"/><path class="cls-62" d="M860.15,728.46H322.44c-8.18,0-14.82-6.22-14.82-13.89H875C875,722.24,868.33,728.46,860.15,728.46Z" transform="translate(-197.78 -66.5)"/><path class="cls-63" d="M657.25,656.88a6.83,6.83,0,0,0-6.85-5.45H532.19a6.83,6.83,0,0,0-6.85,5.45L518,698.78a6.65,6.65,0,0,0,6.85,7.57h133a6.65,6.65,0,0,0,6.85-7.57Z" transform="translate(-197.78 -66.5)"/><rect class="cls-64" x="206.24" y="229.78" width="48.12" height="4.62"/><rect class="cls-65" x="267.82" y="264.57" width="34.74" height="4.62"/><rect class="cls-66" x="307.98" y="264.57" width="23.05" height="4.62"/><rect class="cls-67" x="206.79" y="352.04" width="23.05" height="4.62"/><rect class="cls-68" x="335.59" y="264.57" width="55.66" height="4.62"/><rect class="cls-69" x="206.79" y="334.52" width="35.77" height="4.62"/><rect class="cls-70" x="256.65" y="369.43" width="21.83" height="4.62"/><rect class="cls-71" x="206.79" y="369.43" width="43.26" height="4.62"/><rect class="cls-72" x="206.79" y="386.82" width="23.86" height="4.62"/><rect class="cls-73" x="263.72" y="229.78" width="34.16" height="4.62"/><rect class="cls-74" x="263.72" y="281.96" width="34.16" height="4.62"/><rect class="cls-75" x="246.64" y="299.35" width="14.59" height="4.62"/><rect class="cls-76" x="232.05" y="317" width="32.78" height="4.62"/><rect class="cls-77" x="269.78" y="317" width="45.25" height="4.62"/><rect class="cls-78" x="206.79" y="299.48" width="34.16" height="4.62"/><rect class="cls-79" x="206.79" y="317" width="20.27" height="4.62"/><rect class="cls-80" x="268.12" y="299.48" width="19.12" height="4.62"/><rect class="cls-81" x="207.36" y="404.22" width="19.12" height="4.62"/><rect class="cls-82" x="206.65" y="264.57" width="34.16" height="4.62"/><rect class="cls-83" x="236.86" y="352.04" width="34.16" height="4.62"/><rect class="cls-84" x="237.28" y="386.82" width="34.16" height="4.62"/><rect class="cls-85" x="297.96" y="386.82" width="34.16" height="4.62"/><rect class="cls-86" x="206.65" y="281.96" width="48.69" height="4.62"/><rect class="cls-87" x="434.82" y="229.78" width="34.16" height="4.62"/><rect class="cls-88" x="313.14" y="404.22" width="34.16" height="4.62"/><rect class="cls-89" x="479.61" y="229.78" width="22.87" height="4.62"/><rect class="cls-90" x="556.96" y="247.18" width="22.86" height="4.62"/><rect class="cls-91" x="307.07" y="229.78" width="43.52" height="4.62"/><rect class="cls-92" x="476.63" y="247.18" width="43.52" height="4.62"/><rect class="cls-93" x="423.26" y="264.57" width="43.52" height="4.62"/><rect class="cls-94" x="366.6" y="281.96" width="43.52" height="4.62"/><rect class="cls-95" x="472.25" y="264.57" width="30.94" height="4.62"/><rect class="cls-96" x="382.78" y="229.78" width="43.52" height="4.62"/><rect class="cls-97" x="333.12" y="281.96" width="25.52" height="4.62"/><rect class="cls-98" x="313.14" y="352.3" width="25.52" height="4.62"/><rect class="cls-99" x="358.64" y="229.78" width="15.93" height="4.62"/><rect class="cls-100" x="307.07" y="281.96" width="15.93" height="4.62"/><rect class="cls-101" x="530.64" y="247.18" width="15.93" height="4.62"/><rect class="cls-102" x="206.24" y="247.18" width="24.92" height="4.62"/><rect class="cls-103" x="272.73" y="334.65" width="19.67" height="4.62"/><rect class="cls-104" x="237.28" y="247.18" width="8.04" height="4.62"/><rect class="cls-105" x="402.47" y="247.18" width="66.51" height="4.62"/><rect class="cls-106" x="338.66" y="386.82" width="66.51" height="4.62"/><rect class="cls-107" x="251.24" y="247.18" width="8.21" height="4.62"/><rect class="cls-108" x="374.57" y="247.18" width="21.76" height="4.62"/><rect class="cls-109" x="396.33" y="264.57" width="21.76" height="4.62"/><rect class="cls-110" x="284.44" y="404.22" width="21.76" height="4.62"/><rect class="cls-111" x="322.51" y="247.18" width="46.3" height="4.62"/><rect class="cls-112" x="279.42" y="352.3" width="27.05" height="4.62"/><rect class="cls-113" x="277.68" y="386.82" width="13.53" height="4.62"/><rect class="cls-114" x="300.01" y="247.18" width="15.93" height="4.62"/><rect class="cls-115" x="246.39" y="264.57" width="15.93" height="4.62"/><rect class="cls-116" x="249.57" y="334.65" width="15.93" height="4.62"/><rect class="cls-117" x="266.18" y="247.18" width="27.75" height="4.62"/><path class="cls-118" d="M697,348.65s8.1,12.87,11.52,15c4.64,2.85,1.73,5.74-.47,5.74s-13.46.76-15.94-1.88-3.71-10.55-6-12.61-4.68-10.3,1.12-12.29C692.36,340.81,697,348.65,697,348.65Z" transform="translate(-197.78 -66.5)"/><path class="cls-119" d="M693.5,343s9.27,15.07,10.87,17.3-3,2.22-5.87,1.16-10-11.86-11.06-13.83a6.87,6.87,0,0,1-.23-5Z" transform="translate(-197.78 -66.5)"/><polygon class="cls-120" points="486.33 284.6 488.47 300.05 489.6 300.1 489.25 288.98 486.33 284.6"/><path class="cls-121" d="M616.71,348.65s8.1,12.87,11.51,15c4.65,2.85,1.74,5.74-.46,5.74s-13.47.76-15.94-1.88-3.71-10.55-6-12.61-4.77-10.51,1.12-12.29C612.09,341,616.71,348.65,616.71,348.65Z" transform="translate(-197.78 -66.5)"/><path class="cls-122" d="M613.69,343s8.79,15,10.39,17.27-3,2.22-5.87,1.16-10-11.86-11.07-13.83a6.84,6.84,0,0,1-.22-5Z" transform="translate(-197.78 -66.5)"/><polygon class="cls-123" points="406.03 284.6 408.17 300.05 409.31 300.1 408.96 288.98 406.03 284.6"/><path class="cls-124" d="M580.78,231.52l73.28,31.31s8.17,2.49,9.09,11c2.86,26.58,24.06,68.75,24.06,68.75,6.81,3.11,6.29.41,6.29.41-4.29-12.91-9.51-66.09-11.37-87.47-.4-4.53-.64-7.63-.69-8.62,0-.68-.83-1.56-2.18-2.59-10.06-7.65-51.43-23.47-51.43-23.47C596.77,220.1,580.78,231.52,580.78,231.52Z" transform="translate(-197.78 -66.5)"/><path class="cls-125" d="M567,245c2.27,18.57,30.54,16.45,30.54,16.45h34.27s-9,18.78-12.48,34.61c-3.69,16.81-12.38,46.56-12.38,46.56s.57,1,6.77.44c0,0,26.9-50.26,37.19-62.9,2.22-2.72,8.56-17.48,9.66-26.28.37-3,.14-5.25-1-6.18a83.84,83.84,0,0,0-7.56-4.85c-10.74-6.35-29.38-16.12-39.76-18.3-13.91-2.94-35.91-8.43-35.91-8.43S564.71,226.39,567,245Z" transform="translate(-197.78 -66.5)"/><path class="cls-126" d="M590.29,101.92s-5.12-9.12-2.63-18.85,12.13-19.41,26.21-15,25.48,14.71,17,26.58,7.65,17.22,3.55,22.87-2.55,11.53-.81,12.85,7.33,6,6.71,11.54S613,125.79,613,125.79,598.47,98.38,590.29,101.92Z" transform="translate(-197.78 -66.5)"/><path class="cls-127" d="M633.23,218.61s-2.12,9.67-56.84-2.54C576.39,216.07,594.73,210.36,633.23,218.61Z" transform="translate(-197.78 -66.5)"/><path class="cls-128" d="M575.76,218.78l-2.54,4.56,60,1.64c-3.16-9.94-2.14-23.39-1.58-33.6.68-12.48,8-21.15,7.24-33.76,4,.6,4.64.71,8.61,1.28-6.07-16.19-8.14-24.22-27-30.45a37.4,37.4,0,0,0-16.8-1.92c-21.8,1.69-28.38,1.93-39.09,20.46,16.77,2.5,14,8.15,19.09,23.78,2.48,7.63,5.07,16.14,3.74,24.19S575.76,211.56,575.76,218.78Z" transform="translate(-197.78 -66.5)"/><path class="cls-129" d="M610.57,132.38c-8.93-1.59-7-6.24-7-6.24s.41-2.63.57-6c0-.85.07-1.74.06-2.65a32.92,32.92,0,0,0-.24-4.12c-.73-5.61,16.2-2.26,16.2-2.26s-1,11.36,1.36,14.77S619.49,134,610.57,132.38Z" transform="translate(-197.78 -66.5)"/><path class="cls-130" d="M593.54,126.11s18,19.49,24.66,24c0,0,7.64-6.48,2.93-23.59C621.13,126.53,612.44,122.45,593.54,126.11Z" transform="translate(-197.78 -66.5)"/><path class="cls-131" d="M594,79.2s-9.35,16.89-.08,32.89,27.49-7,28.67-9.66,7.43-17.94-5-22.57S596.68,74.62,594,79.2Z" transform="translate(-197.78 -66.5)"/><path class="cls-132" d="M612.08,113.77s-1.62,3.33-8,6.42c0-.85.07-1.74.06-2.65A15.64,15.64,0,0,0,612.08,113.77Z" transform="translate(-197.78 -66.5)"/><path class="cls-133" d="M517.59,203.59s-4.44,1.85-6.55,1a21.19,21.19,0,0,0-6.4-1c-1.37,0-5.67-1.44-5.6.14s7,2.67,8.4,3.17-4.23,3.4-4.76,4.7,5.85,9.79,9.45,7.37,5.54-7.26,6.27-7.56a27,27,0,0,0,2.7-1.67Z" transform="translate(-197.78 -66.5)"/><path class="cls-134" d="M503.36,210.84S492.94,219,492.78,220s.38,1.61,1.4.89,10.33-7.55,10.33-7.55-10.44,11.56-10.79,12.42c-.21.5.79,1.55,1.38,1.21s11.69-11.23,11.69-11.23-9.73,10.82-9.79,11.63a1.15,1.15,0,0,0,1.91.72c.79-.76,10.47-10.3,10.47-10.3s-6.51,8.3-6.1,9c.24.45,1.06,1.39,2.67-.8s6-7,6-7Z" transform="translate(-197.78 -66.5)"/><path class="cls-135" d="M628.2,261.41H597.51S569.24,263.53,567,245s9.29-28.88,9.29-28.88,14.94,3.73,28,6.68a107.43,107.43,0,0,1,23.58-1.92S683.11,238,681.44,247C681.44,247,658.32,235.39,628.2,261.41Z" transform="translate(-197.78 -66.5)"/><polygon class="cls-136" points="410.45 162.75 468.96 161.94 439.42 176.01 410.45 162.75"/><path class="cls-137" d="M626.4,222.24a53.18,53.18,0,0,1-29.29.46l-.76-5.65,33.22,1.73Z" transform="translate(-197.78 -66.5)"/><polygon class="cls-138" points="439.42 176.01 410.45 165.49 410.45 162.75 441.71 173.32 439.42 176.01"/><path class="cls-139" d="M626.2,224.86a2.88,2.88,0,0,0,4,2.69l3.39-1.36a2.25,2.25,0,0,0,1.44-2.45c-1.41-8.3-4.45-40.6,0-46.14a19.58,19.58,0,0,0,3.23-5.42c2.93,7.08,6.58,16.2,8,21.11L674,227.77l9.27,2.2c-11.57-26.13-20.86-40-20.86-40-1.81-4.56-7-18.35-11.59-30.63-2.9-7.75-5.56-14.9-7-18.74a8.86,8.86,0,0,0-4-4.65c-4.28-2.4-11.42-6.18-17.89-9.13l-.08,0-.61-.28h0c12.3,17.45,7.5,66.74,5.08,98.26Z" transform="translate(-197.78 -66.5)"/><path class="cls-140" d="M580.54,128c-3.95.57-13.72,9.47-18.9,18.44-5.93,10.25-12,21.92-16.47,25.75-8.31,7.06-31.57,32-32.67,31.4-.43-.23,6.38,7.45,7.24,7.81.43.18,38.22-30.53,41.85-35.2,3.45-4.44,12.65-23.05,15.4-22.64h0a132.21,132.21,0,0,1,6.73,17.17c0,.17.1.33.16.5,2.18,6.94,2,14.47.8,22.94-.9,6.38-6,16.83-9.05,21.91a3.28,3.28,0,0,0,.12,2.66h0a1.94,1.94,0,0,0,1,1.1l11.09,3.86,2.61.91a6,6,0,0,0,5.32-.69,5.22,5.22,0,0,0,2.29-3.62c2.47-17.79,5.59-36,8.08-42.82,10.91-30.05-4.27-52.63-4.27-52.63S584,126.81,580.54,128Z" transform="translate(-197.78 -66.5)"/><polygon class="cls-141" points="439.42 176.01 456.83 131.45 512.93 132.31 496.34 173.37 439.42 176.01"/><path class="cls-142" d="M672.55,217.66c-1.71,3.21-1.19,6.71,1.16,7.81s5.64-.61,7.35-3.81,1.2-6.71-1.15-7.81S674.26,214.46,672.55,217.66Z" transform="translate(-197.78 -66.5)"/><path class="cls-143" d="M638.51,133.45c-4.13-5.83-7.07-10.55-7.42-18.86-.23-5.5-1.59-13-5.61-16.73,4.23-10.38-.76-13.46-2.73-16.85-2.46-4.25-20.88-14.38-28.13-3.75A29.75,29.75,0,0,0,589.94,99c.76-5.86,7.2-13.79,7.2-13.79,1,6.13,14.56,16.14,20.45,20.24-.08.12-.14.24-.22.36-3.33,4.52.83,9,1.55,13.75s-13.86,17.51,2.36,23.92S642.65,139.28,638.51,133.45Z" transform="translate(-197.78 -66.5)"/><path class="cls-144" d="M342.18,636.17s-.36,3.65-18.4,3.65-44.23-4.4-44.23-4.4l41.89-3.81S337.47,630.9,342.18,636.17Z" transform="translate(-197.78 -66.5)"/><path class="cls-145" d="M296.32,637.51c-10.18,0-14.56,4.91-18.61,6.43a73.56,73.56,0,0,0-8.07,3.82c2.28-4.22,5.56-4.33,7.22-5.69s1.22-.69-2.4-1c-2.06-.15-5.7,3.37-8.32,5.32a8.33,8.33,0,0,1-3.68,1.81,44.35,44.35,0,0,1,6-6.42,52.75,52.75,0,0,1,10.28-6.8c2.18-.82,9-1,13.84-.39C298.07,635.36,303.66,637.53,296.32,637.51Z" transform="translate(-197.78 -66.5)"/><path class="cls-146" d="M279.31,635.22s-7.8,1.9-9.18,2.9c-.95.69-4.94,4.74-4.94,4.74a10.33,10.33,0,0,0,4.6-2C271.48,639.35,279.31,635.22,279.31,635.22Z" transform="translate(-197.78 -66.5)"/><path class="cls-147" d="M327.42,628.8s19.7,1.2,18.34,12.56c-.77,6.45-5.27,8.69-11.22,8.22-11.06-.87-23.6-2.44-23.6-2.44l-5.6-17.65Z" transform="translate(-197.78 -66.5)"/><path class="cls-148" d="M331.54,630.37l19.32-58.45s2.84-8.56,7.53-6.95c6.77,2.32,3.41,9.32,2.82,13.48-1.21,8.47-.41,12.16-6.65,32.57-3.85,12.59-7.18,27.09-10.53,35.37-2.32,5.7-6.25-2.47-12.21-4.76C320.71,637.37,331.54,630.37,331.54,630.37Z" transform="translate(-197.78 -66.5)"/><path class="cls-149" d="M333,540.15c3.76,10.2,15.5,15.43,26.22,11.7s16.35-15,12.58-25.22-15.49-15.43-26.21-11.69S329.27,530,333,540.15Z" transform="translate(-197.78 -66.5)"/><path class="cls-150" d="M311.81,541.06a19.21,19.21,0,0,0,26.24,4.63l-1.22-9.76a18,18,0,0,0,4.76-25.49l-4-5.65a19.21,19.21,0,0,0-26.24-4.63l-3.87,2.61a18,18,0,0,0-4.77,25.49Z" transform="translate(-197.78 -66.5)"/><path class="cls-151" d="M304.06,513.89a37.68,37.68,0,0,0,3.4,4c8.46,8.61,19.75,11.89,27,8.35A57,57,0,0,0,345,536.41c4,3,14.11,4.2,14.11,4.2,5.93,6-16.24,41.33-17.76,41.2-3.23-.27-7.37-19.79-4.36-26.87,1.35-3.17,3.63-7,3-8.71-2.29-6-5.49-4.92-5.49-4.92s-4.25,4.66-7.51,4.45c-3.45-.21-9.25-5.25-9.55-5.31a13.07,13.07,0,0,1-2.73-2.82l-8.85-12.42A12.61,12.61,0,0,1,304.06,513.89Z" transform="translate(-197.78 -66.5)"/><path class="cls-152" d="M371.67,662.63s-7.18,8.1-9.38,9c-2.94,1.21-11.92-1.34-11.92-1.34s-2.38-37.21-5.13-51.74-6.84-18.33-7-22.9c-.27-7.3-6.78-10.26-5.71-16s3-26.06,3.68-23.35c5.63,23.09,12.56,3.92,14,.87C351.05,555.51,371.67,662.63,371.67,662.63Z" transform="translate(-197.78 -66.5)"/><path class="cls-153" d="M339,549.41s-8.71,9-8.11,12.5-3.75,14.62.56,30c4.92,17.56,7.44,29.45,8.36,40.92s-3.22,22-1.6,36.07c1.26,11,4,11.68,4,11.68a9.63,9.63,0,0,0,8.94-3.08c3.71-4.26-1.86-41.81-3.71-51.21s-7.75-31.35-9.29-37.78a68,68,0,0,1-1.47-18.4,76.66,76.66,0,0,1,2.46-16.42C339.24,553.15,339.72,548.34,339,549.41Z" transform="translate(-197.78 -66.5)"/><path class="cls-154" d="M354.24,559.89c4.79,13,19.7,19.61,33.32,14.87s20.77-19.09,16-32-19.7-19.61-33.32-14.87S349.47,546.94,354.24,559.89Z" transform="translate(-197.78 -66.5)"/><polygon class="cls-155" points="109.66 715.93 114.56 752.42 93.39 761.86 81.64 764.26 102.49 749.13 95.67 716.21 109.66 715.93"/><path class="cls-156" d="M313.72,824.42l-4.59,1.16-3.09-2.7-16.91,8-15,3.33a2.64,2.64,0,0,1,.32-1.76c1.89-2.31,12.39-7.46,12.39-7.46s.17,3.38,1.66,3.48S303,822.17,306,820.39c5.16-3.06,6.12-5,6.52-4.73C313.51,816.29,313.72,824.42,313.72,824.42Z" transform="translate(-197.78 -66.5)"/><polygon class="cls-157" points="58.56 665.17 41.75 696.27 18.49 695.16 6.92 692.04 32.6 687.96 46.63 661.39 58.56 665.17"/><path class="cls-158" d="M238.15,768.28l-4.63-1-1.46-3.77-20.86-.29-12.45-2.75a10.5,10.5,0,0,1,2.43-1.94c2.78-1.09,12.62-1.65,12.62-1.65s-1,2.65.25,3.41,15.61,1.2,19.12,1c6-.4,7.78-1.66,8-1.27C241.82,761,238.15,768.28,238.15,768.28Z" transform="translate(-197.78 -66.5)"/><path class="cls-159" d="M379.22,638.67,366.67,644l.05,16.17L280.5,647s-8.22-2.46-13.46,10.15c-7.45,18-26.41,73.8-26.41,73.8l12,12.19L290.28,680s77.14,35.15,102.58,27.56c9.76-2.91,17.22-19.66,15.82-36.58a211.11,211.11,0,0,0-3.82-25.44Z" transform="translate(-197.78 -66.5)"/><path class="cls-160" d="M368.3,707.18l-61.73-4.31,5.31,92.55-18.2.56L280.23,687.59s3.63-16.13,15.41-13.7S336,697.56,368.3,707.18Z" transform="translate(-197.78 -66.5)"/><path class="cls-161" d="M409.88,730.34s-32.39-34.06-40.8-53.35c-10-23-9.17-52-11-61.54-3.4-17.59-7.53-51.82-8.32-56.05s2-9,2-9-2.12-12.8,4-11.42c8.71,2,17.42,6.51,20.43,7.81,5.69,2.46,17.39,66.81,18,69.93,2.38,11.23,11.19,21.36,17.43,31.87,14.7,24.76,18.45,54,18.45,54S428.3,724.2,409.88,730.34Z" transform="translate(-197.78 -66.5)"/><path class="cls-162" d="M376.42,641.21s-.27,4.17-20.92,3.17-50.77-7.49-50.77-7.49l47.79-2.07S370.83,634.89,376.42,641.21Z" transform="translate(-197.78 -66.5)"/><path class="cls-163" d="M320.92,639.17c-9.83-.18-14.07,4.58-18,6a67.48,67.48,0,0,0-7.8,3.61c2.2-4.09,5.38-4.15,7-5.46s1.17-.64-2.32-1c-2-.19-5.5,3.19-8,5.06a8,8,0,0,1-3.56,1.72A41.9,41.9,0,0,1,294,643a50.28,50.28,0,0,1,9.93-6.49c2.11-.76,8.68-.87,13.36-.17C322.61,637.1,328,639.3,320.92,639.17Z" transform="translate(-197.78 -66.5)"/><path class="cls-164" d="M304.5,636.68s-7.53,1.75-8.86,2.7c-.92.66-4.78,4.56-4.78,4.56a9.83,9.83,0,0,0,4.45-1.87C296.94,640.6,304.5,636.68,304.5,636.68Z" transform="translate(-197.78 -66.5)"/><path class="cls-165" d="M360,636.65l30.61-15.07s.11,18.31.25,25.26,3.31,16.83-2.54,18.28-9,.73-2.87,4,4.65,6.76,2.37,9.61,7.7,31.81,5.39,33.51c-9.5-11.2-19.68-25.14-24.1-35.26C363.37,663.92,361.17,648.92,360,636.65Z" transform="translate(-197.78 -66.5)"/><path class="cls-166" d="M369.85,629.32,368.69,571s.11-18.2.44-23.56c.33-5.53,10.38,1,10.38,1s14.06,17.89,14.36,60.93c.2,28.78-1.5,43.8-15.64,42.61-13.19-1.11-28.13-3-28.13-3l-6.58-16Z" transform="translate(-197.78 -66.5)"/><polygon class="cls-167" points="168.95 593.65 63.71 581.32 63.97 579.22 169.21 591.55 168.95 593.65"/><path class="cls-168" d="M320.55,652.49a2.86,2.86,0,0,1-3,2.63l-54-6.32c-1.47-.18-3.33-1.45-4.61-5.79l-20.81-50.47a2.8,2.8,0,0,1,3.48-2.6l55.17,8.11c1.43.51,2.49,1.75,3.06,4Z" transform="translate(-197.78 -66.5)"/><path class="cls-169" d="M313.75,654l.54.06L367,660.18a20.16,20.16,0,0,1-8.81.61l-44.08-5.17-.54-.06-44.07-5.17a20.18,20.18,0,0,1-8.43-2.62Z" transform="translate(-197.78 -66.5)"/><path class="cls-170" d="M369.85,629.32,368.69,571a55.68,55.68,0,0,1,2.78-9.35c.44,6.39,3.58,52.35,4,58.43.45,6.53,6.13,7.26,7.39,9.36s.18,2.54-4,1.72-2.64-.19-1.74,1.94-1.39,1.55-9.46-1.21c-5.87-2-17.21,0-23,1.24Z" transform="translate(-197.78 -66.5)"/><path class="cls-171" d="M733.59,486.1c-10.14,2.48-28.82,11.32-32.74,26.42-5.87,22.67,5.88,56-12.72,88.52-5.94,10.37,102.77,24.33,102.77,24.33l21-114.58s-26.2-24.87-31.56-26.54C769.22,480.78,753.85,481.15,733.59,486.1Z" transform="translate(-197.78 -66.5)"/><path class="cls-172" d="M812.05,510.86c3.78,9.16,13.32,63.63,2.68,76.47-1.22,1.48,5.53,3.79,4.3,10.56-.2,1.14-2.24,6.54-2.24,6.54l-8.69,2.2-18.84-20.42s7.65-11.1,17.69-53.37C809.9,520.4,811.22,508.84,812.05,510.86Z" transform="translate(-197.78 -66.5)"/><path class="cls-173" d="M740.56,576s9.14,22.5,31.11,28.53c3.8,1,6.14,5,4.3,6.31-2.34,1.64-5.56,2-11.08,2-11.48,0-27.11-3.49-37.92-13.66-16-15-21.05-21.89-19.43-29.46S740.56,576,740.56,576Z" transform="translate(-197.78 -66.5)"/><path class="cls-174" d="M704,504.94c-4.65,7.42-7.34,19.35-7.31,36.42,0,13.22,11.77,34.85,13.56,41.5.31,1.11,1,5.87,1,5.87l13,12.39L750.33,584l-7.93-11.83-2.36.25s-1.5-6.52-1.11-9.07-7.22-36.61-11-58.45C725.77,492.26,708.58,497.57,704,504.94Z" transform="translate(-197.78 -66.5)"/><path class="cls-175" d="M727.32,571.94l7.59-2.28,3.1-.75a5.53,5.53,0,0,0,2,3.46l-6,.68-6.91,2-8.09,5.4Z" transform="translate(-197.78 -66.5)"/><path class="cls-176" d="M770,604.42l13.28-3.53s3.76,4.91,3.05,6.12,0,8.48,0,8.48l-6.43,5.32-5.23-1.7s-.37-2.21,1.42-2.43-1.21-1.48-2.15-2S765.3,610.3,770,604.42Z" transform="translate(-197.78 -66.5)"/><path class="cls-177" d="M749.65,485a7.85,7.85,0,0,0,5,10.05l7.54,2.57a8.2,8.2,0,0,0,10.35-4.83l6.71-18.62a7.85,7.85,0,0,0-5-10.05l-7.53-2.57a8.2,8.2,0,0,0-10.35,4.83Z" transform="translate(-197.78 -66.5)"/><path class="cls-178" d="M782.53,501.36a5.25,5.25,0,0,1-6.44,3.55l-22.74-6.08a5.08,5.08,0,0,1-3.66-6.27L759,459.83a5.26,5.26,0,0,1,6.44-3.55l22.74,6.09a5.1,5.1,0,0,1,3.67,6.26Z" transform="translate(-197.78 -66.5)"/><path class="cls-179" d="M794.35,465.36h0a9.38,9.38,0,0,1-.92-7.29c1.59-6.39-3.53-9-7.24-9.09-2.22-.06-9.67,3.25-13.62,4.39s-3.63-.31-10.73-1.55c-4.76-.85-5.91,1.6-7.57,5.12s-1.81,17-1.81,17c.66.84,1.63,1.55,2.29.84s3.25-11.46,5.29-14.66,10.3,1.88,14.8,4.41,8.4,2.92,15.5,1.57c.81.89,1.58,1.85,1.57,2.27,0,.87-2,7-2,7s4-2.35,5.07-4.16C795.47,470.47,795.59,467.53,794.35,465.36Z" transform="translate(-197.78 -66.5)"/><path class="cls-180" d="M756.85,485.68a1.74,1.74,0,0,1-2.15,1.18l-4.91-1.31a1.7,1.7,0,0,1-1.22-2.09l2.47-8.72a1.75,1.75,0,0,1,2.15-1.19l4.92,1.31a1.71,1.71,0,0,1,1.22,2.1Z" transform="translate(-197.78 -66.5)"/><path class="cls-181" d="M753.84,477.39s-3.65,12.89-4.88,17.19c-1.1,3.87-1.92,12.83,20.66,18.88,13.37,3.57,15.58-6.1,16.48-9.24.67-2.39-.08-10.28-1.1-12,0-.06-1.51,5.31-1.51,5.31a10.85,10.85,0,0,0-7.67-7.63c-10.25-2.73-14.22,2.47-18.72,1.16C753.66,490,752.6,483.8,753.84,477.39Z" transform="translate(-197.78 -66.5)"/><path class="cls-182" d="M769.22,497.2l7,1.88a1.75,1.75,0,0,0,2.15-1.19l.27-.94-10.38-2.79-.28,1A1.69,1.69,0,0,0,769.22,497.2Z" transform="translate(-197.78 -66.5)"/><path class="cls-183" d="M880.14,627.92c-3.23,8.7-60,40.71-79,38.8l-57.3,2.66C695.14,663.6,672.08,590,672.08,590c1.94-18.47,49.94,8.3,67.06,16.6,27.09,13.14,44.23,13.8,44.23,13.8,18.13,1.8,39.14-11.78,62-12.26C870.52,607.67,885.24,614.22,880.14,627.92Z" transform="translate(-197.78 -66.5)"/><path class="cls-184" d="M755.49,619.09a.35.35,0,0,0,0-.08V616.7L854.07,615l0,2.32a.1.1,0,0,1,0,.08l-.24.43c-1.23,2-3.5,2.43-6.1,2.48l-85.83,1.51c-2.6.06-4.88-.27-6.19-2.25Z" transform="translate(-197.78 -66.5)"/><path class="cls-185" d="M779.26,619.06a.11.11,0,0,1,0,.06l-.23.36a4.09,4.09,0,0,1-1.42,1.2l-15,.26c-2.51,0-4.69-.2-6-1.81l-.24-.35,0,0v-1.14l22.86-.4Z" transform="translate(-197.78 -66.5)"/><rect class="cls-186" x="792.54" y="616.14" width="49.29" height="1.63" transform="translate(-208.57 -51.94) rotate(-1.01)"/><path class="cls-187" d="M779.76,616.19l11.9-47.32a3.21,3.21,0,0,1,2.89-2.3l69.19-1.22a1.68,1.68,0,0,1,1.75,2.21l-11.91,47.32Z" transform="translate(-197.78 -66.5)"/><path class="cls-188" d="M735.11,681.63c6.82,1.14,12-6.56,12-6.56l17.64-13.49L761,652.46l-34.34,15S728.28,680.5,735.11,681.63Z" transform="translate(-197.78 -66.5)"/><path class="cls-189" d="M747.16,674.56s0,.79-1.3,4.3-2.93,4.74-4.63,5.23c-6.58,1.89-11.32.94-27.16,3.9s-20.58.73-25.21-6.36.17-12.66,7.9-13.23c11.18-.82,17.4.42,23.22-.44,6.09-.9,6.48-2.23,10-4.36,3.35-2,6.44,9.9,3.27,12.67C730.49,678.69,744.79,679.06,747.16,674.56Z" transform="translate(-197.78 -66.5)"/><path class="cls-190" d="M743.77,681.39c-6.58,1.89-11.33.94-27.16,3.9s-20.58.73-25.22-6.36c-2.14-3.28-2.25-6.2-1-8.49-3.49,2.33-4.67,6.4-1.54,11.19,4.63,7.09,9.38,9.33,25.21,6.36s20.58-2,27.16-3.9a6,6,0,0,0,3.68-3.17A5.08,5.08,0,0,1,743.77,681.39Z" transform="translate(-197.78 -66.5)"/><path class="cls-191" d="M747.14,674.77a1.86,1.86,0,0,0,0-.21c0,.08-.1.15-.15.23Z" transform="translate(-197.78 -66.5)"/><path class="cls-192" d="M712.93,680.09c-.5.18-1-.74-1.11-2.05a36,36,0,0,0-1.84-7.93c-.46-1.3-.44-2.45.11-2.6s1.45.79,1.89,2.06a36.38,36.38,0,0,1,1.73,7.84C713.85,678.7,713.44,679.9,712.93,680.09Z" transform="translate(-197.78 -66.5)"/><path class="cls-193" d="M717.85,679.22c-.55.11-1-.8-1.18-2a33.24,33.24,0,0,0-1.81-7.46c-.44-1.23-.42-2.28.17-2.35s1.51.85,1.93,2.06a32.42,32.42,0,0,1,1.71,7.38C718.79,678,718.37,679.11,717.85,679.22Z" transform="translate(-197.78 -66.5)"/><path class="cls-194" d="M723,679c-.56.08-1.12-.89-1.31-2.16a36.86,36.86,0,0,0-2.15-7.7c-.49-1.26-.5-2.32.13-2.35s1.57,1,2.05,2.21a35.68,35.68,0,0,1,2,7.61C723.94,677.87,723.55,678.94,723,679Z" transform="translate(-197.78 -66.5)"/><path class="cls-195" d="M736.31,659.62s121.2-48.41,128.12-48.48c23.41-.21,18,22.8,6.18,33.63-14,12.77-120.4,36.15-120.4,36.15Z" transform="translate(-197.78 -66.5)"/><polygon class="cls-196" points="586.61 601.53 553.52 571.05 567.63 557.48 603.75 594.37 586.61 601.53"/><path class="cls-197" d="M791.24,644.06s-84.19-75-89.88-77.22c-19.21-7.58-31.12,13-30.45,20.17.88,9.23,86.42,84.33,86.42,84.33Z" transform="translate(-197.78 -66.5)"/><path class="cls-198" d="M841.13,670.41c2,1.77,2.31,7,2.31,7s-28.1,10.32-38,10.5c-2.56.06-7.18-1-11.6-2.14-.74-.19-2.45-2.06-3.18-2.27-1.34-.38-1.65.89-2.8.53a36.8,36.8,0,0,1-5.2-1.86c-5.94-12.26-3.93-18.3-3.93-18.3s12.91,3.58,10.7.78c-4.74-6,8.79-12.15,11.81-9C813.29,668.46,835.43,665.3,841.13,670.41Z" transform="translate(-197.78 -66.5)"/><path class="cls-199" d="M842.7,673c-8.64,3.33-26.79,10.22-30.4,10.46-14.79,1-25.12-4.09-32-7.09a52.49,52.49,0,0,0,2.42,5.81,36.8,36.8,0,0,0,5.2,1.86c1.15.36,1.46-.91,2.8-.53.73.21,2.44,2.08,3.18,2.27,4.42,1.19,9,2.2,11.6,2.14,9.87-.18,38-10.5,38-10.5A18.2,18.2,0,0,0,842.7,673Z" transform="translate(-197.78 -66.5)"/><path class="cls-200" d="M822.83,665c.27.47-.83,1-2.41,1.35a54.38,54.38,0,0,0-9.49,2.79c-1.53.62-2.93.75-3.15.23s.85-1.51,2.37-2.1a54.23,54.23,0,0,1,9.38-2.69C821.1,664.3,822.58,664.53,822.83,665Z" transform="translate(-197.78 -66.5)"/><path class="cls-201" d="M816.53,662.84c.24.48-.83,1.17-2.37,1.6A56,56,0,0,0,805,668c-1.47.72-2.82.94-3,.4s.82-1.64,2.29-2.34a54,54,0,0,1,9.09-3.39C814.87,662.21,816.29,662.36,816.53,662.84Z" transform="translate(-197.78 -66.5)"/><path class="cls-202" d="M810.46,660.94c.23.51-.82,1.29-2.31,1.84a56.4,56.4,0,0,0-8.84,4.18c-1.42.83-2.71,1.13-2.89.55s.78-1.75,2.18-2.56a54.18,54.18,0,0,1,8.78-4.06C808.85,660.36,810.24,660.43,810.46,660.94Z" transform="translate(-197.78 -66.5)"/></svg>